<?xml version="1.0" encoding="UTF-8" standalone="no"?>
<!-- Created with Inkscape (http://www.inkscape.org/) -->

<svg
   xmlns:dc="http://purl.org/dc/elements/1.1/"
   xmlns:cc="http://creativecommons.org/ns#"
   xmlns:rdf="http://www.w3.org/1999/02/22-rdf-syntax-ns#"
   xmlns:svg="http://www.w3.org/2000/svg"
   xmlns="http://www.w3.org/2000/svg"
   xmlns:sodipodi="http://sodipodi.sourceforge.net/DTD/sodipodi-0.dtd"
   xmlns:inkscape="http://www.inkscape.org/namespaces/inkscape"
   id="svg3336"
   version="1.1"
   inkscape:version="0.91 r13725"
   width="215mm"
   height="279mm"
   viewBox="0 0 761.81105 988.5827"
   sodipodi:docname="foot.svg">
  <metadata
     id="metadata3342">
    <rdf:RDF>
      <cc:Work
         rdf:about="">
        <dc:format>image/svg+xml</dc:format>
        <dc:type
           rdf:resource="http://purl.org/dc/dcmitype/StillImage" />
        <dc:title></dc:title>
      </cc:Work>
    </rdf:RDF>
  </metadata>
  <defs
     id="defs3340" />
  <sodipodi:namedview
     pagecolor="#ffffff"
     bordercolor="#666666"
     borderopacity="1"
     objecttolerance="10"
     gridtolerance="10"
     guidetolerance="10"
     inkscape:pageopacity="0"
     inkscape:pageshadow="2"
     inkscape:window-width="1918"
     inkscape:window-height="1078"
     id="namedview3338"
     showgrid="false"
     inkscape:zoom="0.74506579"
     inkscape:cx="441.94048"
     inkscape:cy="516.469"
     inkscape:window-x="0"
     inkscape:window-y="0"
     inkscape:window-maximized="0"
     inkscape:current-layer="svg3336"
     units="mm" />
  <path
     style="fill:#000000"
     d="m 329.74339,72.607978 c 0.0226,0.192925 0.4587,0.543817 0.96833,0.779935 0.50955,0.236123 2.11017,1.245444 3.55672,2.242996 1.60531,1.106712 4.20804,2.598776 6.67693,3.827657 9.03532,4.496755 11.09504,5.582289 11.42607,6.021867 0.19076,0.253115 0.93138,0.699423 1.64601,0.991707 1.31112,0.536171 5.95718,3.366739 9.65765,5.883822 1.10255,0.749894 3.15738,2.146936 4.56643,3.104815 4.6639,3.170243 5.4331,3.720114 7.07851,5.057633 0.8968,0.72943 2.05254,1.52166 2.56748,1.76039 0.51493,0.23878 0.99791,0.57144 1.07295,0.73918 0.20451,0.45652 1.60283,1.59479 3.55845,2.89751 0.95828,0.6381 1.75643,1.27922 1.77393,1.42494 0.0171,0.14533 0.31609,0.39642 0.66361,0.55732 0.34721,0.16091 0.91766,0.54923 1.26724,0.86254 2.34914,2.10619 4.35655,3.79901 5.45838,4.60267 0.70359,0.51339 1.57686,1.25878 1.94059,1.65624 0.36376,0.39749 1.16003,1.1414 1.7695,1.65281 3.29149,2.76245 4.83313,4.13343 11.35787,10.10127 1.0751,0.98313 3.02867,2.74066 4.3416,3.90536 1.31307,1.16497 4.11537,3.79377 6.22714,5.8416 5.56286,5.39429 8.32205,8.03888 9.83798,9.42797 0.73496,0.67338 1.50928,1.42032 1.72085,1.65965 0.21108,0.23918 1.46291,1.52062 2.78142,2.84749 1.31817,1.32688 2.82977,2.90111 3.35847,3.49817 0.52871,0.59708 1.79963,1.90219 2.82364,2.90029 1.02416,0.99809 1.94782,1.99143 2.05286,2.20748 0.10536,0.21553 0.66941,0.81301 1.25493,1.32716 0.58505,0.51387 1.21628,1.14337 1.40198,1.39887 0.52723,0.72449 2.77198,3.26617 3.34232,3.78437 0.57824,0.52559 2.84144,3.07907 3.31372,3.73916 0.17003,0.2373 0.40932,0.47802 0.53165,0.53463 0.24897,0.11564 2.15516,2.31996 7.17111,8.29457 0.83053,0.98897 2.23536,2.64691 3.1217,3.68415 1.8397,2.15299 8.57525,10.62764 10.129,12.74397 0.57027,0.77724 1.40119,1.90689 1.84638,2.51037 0.44516,0.60359 0.87891,1.23268 0.96363,1.3975 0.0828,0.16529 0.80615,1.16773 1.60349,2.22834 0.79738,1.06058 1.75632,2.40545 2.13059,2.98826 0.37428,0.58302 0.92213,1.39126 1.2182,1.79588 2.22408,3.04415 9.69913,14.76942 9.58212,15.0308 -0.0428,0.0992 0.0279,0.233 0.16305,0.29521 0.13478,0.061 1.11793,1.53969 2.18501,3.28292 3.75721,6.13626 4.04861,6.62886 4.4097,7.44579 0.35289,0.79914 3.44076,6.55447 3.82944,7.1367 0.50674,0.75985 1.92998,3.58418 2.98738,5.92789 0.57788,1.2813 1.93765,4.21069 2.78145,5.99289 1.13492,2.39749 2.94286,6.41273 3.04462,6.76315 0.0613,0.21578 0.54287,1.31373 1.06672,2.43991 0.5234,1.12603 1.16269,2.60854 1.42045,3.2946 0.25829,0.68564 1.03124,2.56209 1.71901,4.16965 1.40939,3.29468 4.90214,12.84254 7.87798,21.53556 1.09502,3.19951 2.43205,7.09143 2.97076,8.64866 0.53907,1.55771 1.18314,3.58106 1.43135,4.49704 0.2482,0.91584 0.94583,3.12216 1.5498,4.90248 1.14886,3.38609 1.33441,4.00436 2.01688,6.71815 0.71568,2.84487 0.83428,3.27926 1.32815,4.8629 0.26435,0.84738 0.69635,2.56409 0.95959,3.81453 0.26323,1.25059 0.76633,3.19744 1.11845,4.32638 0.35213,1.12893 0.85026,3.0067 1.10648,4.17289 0.25674,1.16618 0.55714,2.4256 0.66757,2.79883 0.11028,0.37349 0.38172,1.56064 0.60283,2.63826 0.22108,1.07724 0.66915,2.89394 0.99588,4.03619 0.32677,1.14266 0.79485,2.78182 1.04027,3.64284 0.24536,0.86104 0.54988,2.05317 0.67634,2.64925 0.12644,0.59609 0.43217,1.9276 0.67908,2.95926 0.24691,1.0312 0.4737,2.14687 0.50334,2.47872 0.0291,0.33188 0.24083,1.17172 0.46875,1.86613 0.53928,1.64167 1.43014,5.01036 1.3634,5.15416 -0.0277,0.0602 0.13567,0.70283 0.36484,1.42487 0.22987,0.72153 0.36813,1.41835 0.30799,1.54787 -0.0587,0.12906 -0.0206,0.51783 0.0845,0.86354 0.10755,0.34526 0.21953,0.88622 0.24867,1.20139 0.0618,0.68036 0.74305,3.74419 1.08766,4.90267 0.13365,0.44887 0.21362,0.88172 0.17837,0.96111 -0.036,0.0776 0.12883,0.7204 0.36548,1.42352 0.23693,0.70276 0.3863,1.37373 0.33202,1.49031 -0.0528,0.11654 0.0809,0.67476 0.30408,1.24037 0.22111,0.56583 0.35105,1.13927 0.28818,1.27462 -0.0613,0.1354 0.0898,0.82871 0.34339,1.54097 0.25168,0.71268 0.48284,1.56425 0.51432,1.89312 0.0305,0.32886 0.18417,1.18022 0.34019,1.89246 0.29183,1.33206 0.44533,1.91994 1.9732,7.5592 0.49298,1.81866 1.01174,3.83843 1.15328,4.48876 0.14159,0.6507 0.42444,1.74708 0.62837,2.43721 0.87669,2.96405 1.41476,4.93817 2.5864,9.4896 0.47072,1.82922 0.90302,3.41336 0.95994,3.52046 0.0561,0.10711 0.342,1.29339 0.6327,2.63637 0.29061,1.34314 0.6873,2.96171 0.88142,3.59717 0.1938,0.63553 0.32036,1.22461 0.28105,1.30972 -0.0385,0.0831 0.15919,0.78551 0.44095,1.55602 0.28206,0.77064 0.47423,1.49386 0.42735,1.60667 -0.0825,0.20228 0.29255,1.52773 1.08968,3.83215 0.2237,0.64722 0.36894,1.25856 0.3223,1.35931 -0.0455,0.0987 0.0849,0.73709 0.29628,1.41481 0.20937,0.67777 0.52945,2.0499 0.71054,3.04944 0.18112,0.99948 0.40736,2.07646 0.50235,2.39284 0.093,0.31633 0.41605,1.60851 0.71322,2.87091 0.55481,2.3553 2.93038,10.40559 3.54812,12.02446 0.19001,0.49752 0.79297,2.29884 1.33983,4.00234 0.54728,1.70342 1.67337,5.07264 2.50258,7.48726 2.88752,8.40573 5.11133,15.08836 5.46314,16.41555 0.33055,1.24641 4.21031,11.80279 5.15752,14.03311 0.23422,0.55154 0.5245,1.04873 0.64495,1.10449 0.12027,0.0546 0.31485,0.40985 0.43192,0.78633 0.1174,0.37647 0.30667,0.7281 0.42176,0.78085 0.50707,0.23514 1.57874,2.29064 1.5676,3.00727 -0.006,0.43427 0.13713,1.09265 0.31961,1.46375 0.18279,0.37079 0.34864,1.26615 0.36977,1.98921 0.0207,0.72321 0.43091,2.41491 0.91056,3.75974 0.47917,1.34491 0.82064,2.55597 0.7579,2.69117 -0.0613,0.13527 0.16643,0.81184 0.50926,1.50326 0.58558,1.18082 2.10464,5.336 4.69195,12.83263 0.61454,1.78085 1.13438,3.58371 1.15486,4.00689 0.0202,0.4236 0.16436,0.82841 0.31892,0.90003 0.15472,0.0702 0.80539,1.59269 1.44639,3.37995 0.64063,1.78731 1.47092,3.91822 1.84447,4.73575 0.3733,0.81748 0.61748,1.62274 0.54239,1.78929 -0.0751,0.16603 -0.0532,0.34083 0.0434,0.38714 0.0987,0.0452 0.41552,0.62094 0.70221,1.27705 0.28651,0.65661 0.83705,1.86717 1.22258,2.69018 0.38551,0.82329 1.01433,2.26384 1.39641,3.20184 0.38259,0.93758 0.82627,1.76891 0.98498,1.84744 0.15927,0.0768 0.30515,0.40865 0.32366,0.73333 0.0182,0.32472 0.38641,1.17718 0.81709,1.89373 0.43074,0.71714 1.01891,1.78991 1.30726,2.38464 0.28865,0.59463 0.59886,1.21016 0.6897,1.36759 0.0893,0.15721 0.56539,1.24293 1.05471,2.41245 0.4892,1.16951 1.42827,3.1201 2.08695,4.33486 0.65878,1.2148 1.41349,2.73867 1.6773,3.3862 0.26357,0.64756 0.85025,1.635 1.30425,2.19354 0.45343,0.55909 0.95591,1.32375 1.1161,1.69984 0.58579,1.37386 0.73242,1.6639 1.2354,2.44004 0.7162,1.10563 0.87299,1.40979 1.46853,2.84948 1.21819,2.94545 2.45915,5.71229 2.84191,6.33734 0.22559,0.36876 0.74969,1.54332 1.16527,2.60981 0.41461,1.06677 1.03916,2.458 1.38636,3.09195 0.63518,1.1575 2.51121,4.78259 3.78926,7.32303 0.37719,0.75016 0.91983,1.69349 1.20571,2.0963 0.51987,0.73244 0.97683,1.54914 1.2708,2.2695 0.0839,0.21078 0.72899,1.27996 1.42893,2.37654 0.70044,1.09615 1.47192,2.33552 1.71462,2.7538 0.24273,0.41835 0.51698,0.79575 0.60983,0.83877 0.091,0.0423 0.56184,0.82051 1.04205,1.72784 0.48042,0.90713 1.00593,1.84302 1.1679,2.07914 0.16245,0.23623 0.74043,1.07055 1.28452,1.85365 0.54422,0.78349 1.4835,2.43204 2.08716,3.66416 0.60311,1.23223 1.57403,2.85611 2.15644,3.60945 0.58282,0.75325 1.19427,1.6784 1.35953,2.05568 0.16484,0.37737 0.75732,1.40609 1.31626,2.28592 0.89884,1.4143 2.27417,3.91278 3.17468,5.76598 0.47809,0.98421 1.62965,3.32997 1.96469,4.00289 1.51082,3.03139 2.57667,5.45412 6.35756,14.45166 0.63073,1.50052 2.03152,5.379 3.1131,8.61934 1.08174,3.23981 2.8117,8.3255 3.84471,11.3015 2.68999,7.74995 3.2644,9.48893 3.38313,10.24137 0.0567,0.36706 0.3398,1.44089 0.62657,2.38682 0.28675,0.94585 0.72564,2.55909 0.97509,3.58465 0.2499,1.02566 0.61563,2.36958 0.81327,2.98621 0.19776,0.61656 0.49756,1.8184 0.66619,2.67115 0.16902,0.85216 0.44615,1.96101 0.61613,2.46309 0.30952,0.91544 0.59004,2.05027 1.90708,7.72445 0.95047,4.09419 1.90819,8.69566 1.84015,8.84223 -0.03,0.0632 0.0888,0.87146 0.26882,1.79028 0.17823,0.9191 0.41774,2.60692 0.53201,3.75096 0.39127,3.91649 0.99733,9.05924 1.18092,10.02311 0.1005,0.5302 0.18895,1.36196 0.19499,1.84808 0.006,0.48618 0.0643,1.1069 0.13243,1.37936 0.27178,1.11103 0.36232,9.66177 0.11584,10.95727 -0.0731,0.39016 -0.13626,1.69637 -0.13772,2.90228 -10e-4,1.20598 -0.0721,2.53284 -0.16044,2.94819 -0.0849,0.41601 -0.37783,2.17009 -0.64681,3.89859 -0.26902,1.72808 -0.66855,3.8332 -0.88743,4.67808 -0.21913,0.84481 -0.38656,1.95024 -0.3719,2.45647 0.0142,0.50617 -0.20608,1.69016 -0.48969,2.63083 -0.28374,0.94107 -0.53984,2.01179 -0.56868,2.38023 -0.0621,0.81047 -0.87393,3.52339 -2.5428,8.51602 -0.95255,2.84918 -1.86983,4.99482 -3.86655,9.04629 -2.76177,5.60366 -4.95699,9.11135 -8.35188,13.34605 -0.61205,0.76332 -1.5249,1.92247 -2.02849,2.57478 -0.50336,0.65318 -1.15799,1.40434 -1.45422,1.66977 -0.29658,0.26543 -1.41193,1.46204 -2.479,2.65917 -1.86516,2.09163 -2.6955,2.87848 -5.76055,5.45488 -0.7704,0.64736 -1.73843,1.64842 -2.15121,2.22476 -0.41295,0.57651 -1.43842,1.78407 -2.27903,2.68362 -0.84071,0.8989 -1.82587,2.02426 -2.18881,2.50067 -0.92778,1.21625 -3.65957,3.94008 -4.81074,4.79669 -0.53173,0.39524 -1.00617,0.80442 -1.05459,0.90888 -0.0473,0.10393 -0.56146,0.48113 -1.14028,0.83807 -0.57866,0.35682 -1.55226,1.31952 -2.16349,2.1398 -0.61104,0.82027 -1.25039,1.47612 -1.42085,1.45671 -0.17056,-0.0186 -0.58831,0.0987 -0.92808,0.26465 -0.33722,0.17066 -1.11338,0.48266 -1.71877,0.70619 -0.60591,0.22164 -1.46993,0.6938 -1.91845,1.05289 -0.44958,0.35546 -1.43703,0.90539 -2.19399,1.22169 -0.75727,0.31556 -1.9578,1.078 -2.66841,1.69254 -0.71067,0.61442 -1.48036,1.16161 -1.71048,1.21617 -0.45789,0.10743 -4.74745,2.36555 -6.52457,3.43394 -0.61229,0.36783 -1.82395,0.92672 -2.69307,1.24179 -0.87038,0.31031 -1.62533,0.66666 -1.68191,0.78028 -0.18656,0.38051 -2.39479,1.68975 -2.66019,1.5777 -0.14392,-0.0595 -1.27374,0.31021 -2.51086,0.82431 -2.95937,1.23007 -2.94393,1.22437 -4.28681,1.56058 -1.63932,0.41045 -3.8862,0.58373 -4.41142,0.34047 -0.54637,-0.25346 -2.88482,-0.25644 -3.79928,-0.005 -0.36939,0.0987 -1.43525,0.12564 -2.3687,0.0536 -0.93351,-0.0698 -2.05662,-0.1096 -2.49575,-0.0833 -0.43898,0.024 -0.97133,-0.0349 -1.1827,-0.13377 -0.21186,-0.096 -0.43639,-0.0656 -0.49947,0.0673 -0.0615,0.13591 -0.40217,0.22757 -0.75369,0.20339 -1.20951,-0.0799 -4.72474,-0.0808 -6.4113,-0.002 -0.92935,0.0436 -1.91207,-0.0215 -2.18432,-0.14762 -0.27195,-0.12637 -0.59143,-0.16549 -0.71028,-0.085 -0.11837,0.0768 -0.95138,0.0379 -1.85051,-0.086 -0.89898,-0.12678 -2.03158,-0.0996 -2.51673,0.0548 -0.48553,0.15693 -0.98336,0.23948 -1.1063,0.18278 -0.12347,-0.0559 -0.61025,-0.084 -1.08177,-0.0623 -0.47188,0.0216 -1.07573,-0.0573 -1.34201,-0.17904 -0.55861,-0.25311 -6.47789,-1.71555 -8.27893,-2.04582 -0.6683,-0.12276 -1.43307,-0.11481 -1.6995,0.0167 -1.26108,0.62018 -16.3902,-5.86317 -26.32564,-11.28537 -2.18588,-1.19301 -4.88194,-2.6376 -5.9912,-3.20979 -1.10917,-0.57202 -2.83503,-1.6834 -3.8352,-2.46903 -1.00026,-0.78615 -2.82223,-2.10867 -4.04825,-2.93881 -1.2265,-0.83068 -3.22764,-2.22864 -4.4475,-3.10722 -1.22,-0.878 -2.62687,-1.78628 -3.12665,-2.0179 -0.49944,-0.23135 -1.33703,-0.81414 -1.86118,-1.29418 -0.52392,-0.48036 -1.6566,-1.48809 -2.51694,-2.23923 -2.15587,-1.88244 -4.12152,-3.72582 -6.12535,-5.74486 -3.38416,-3.41043 -6.13217,-6.10607 -7.04825,-6.91375 -2.72755,-2.40563 -4.00192,-3.41908 -5.24461,-4.16983 -1.29559,-0.78287 -2.97273,-2.1456 -3.83043,-3.11202 -0.21153,-0.23838 -1.38924,-1.63147 -2.61654,-3.0955 -1.22776,-1.46438 -2.37715,-2.72928 -2.55441,-2.81155 -0.17728,-0.0803 -0.7405,-0.62125 -1.25185,-1.19803 -0.51136,-0.57665 -1.52851,-1.62501 -2.26058,-2.33003 -0.73197,-0.7049 -1.51091,-1.51303 -1.73112,-1.79527 -0.22025,-0.28263 -0.58548,-0.75391 -0.81212,-1.04763 -1.59757,-2.06952 -5.0078,-6.11666 -6.18943,-7.34517 -0.48936,-0.50853 -1.00698,-1.09837 -1.15029,-1.31028 -0.14329,-0.21239 -0.39591,-0.52051 -0.56157,-0.68474 -0.16527,-0.1645 -0.54637,-0.6223 -0.84646,-1.01762 -0.30033,-0.39526 -0.87396,-1.14865 -1.27482,-1.67429 -0.40085,-0.52563 -0.75247,-1.04671 -0.78113,-1.15841 -0.0281,-0.11164 -0.31537,-0.53989 -0.63708,-0.95095 -0.32149,-0.41158 -1.08188,-1.99652 -1.68948,-3.52213 -1.0925,-2.74186 -2.69458,-5.44903 -4.84368,-8.18339 -1.5507,-1.97242 -2.60647,-3.7391 -3.39651,-5.6821 -0.12083,-0.29772 -0.5765,-1.02483 -1.01246,-1.61582 -0.43556,-0.59046 -1.1512,-1.7282 -1.59013,-2.52757 -0.43868,-0.79936 -1.16955,-1.92432 -1.624,-2.5 -0.45474,-0.57567 -1.11756,-1.69904 -1.47306,-2.49608 -0.35562,-0.79721 -0.74343,-1.66649 -0.86224,-1.93196 -0.11838,-0.26549 -0.42136,-0.7499 -0.67266,-1.07659 -0.52829,-0.68605 -2.76613,-5.0077 -3.63686,-7.02308 -0.32604,-0.75552 -0.6878,-1.42177 -0.8036,-1.4806 -0.11568,-0.0576 -0.58624,-0.9031 -1.04537,-1.87578 -2.32846,-4.93111 -3.79799,-8.14179 -4.42844,-9.67494 -0.38412,-0.93404 -1.0962,-2.47608 -1.5826,-3.42643 -0.48641,-0.95038 -1.24129,-2.57195 -1.67776,-3.60399 -1.61267,-3.81334 -2.42554,-5.59935 -2.87879,-6.32597 -0.25612,-0.40961 -0.96454,-2.12985 -1.57446,-3.82246 -0.61033,-1.69213 -1.17795,-3.10851 -1.26142,-3.14744 -0.0817,-0.0377 -0.5528,-1.08006 -1.04283,-2.31405 -0.49006,-1.23364 -0.97834,-2.33046 -1.08548,-2.43707 -0.10706,-0.10667 -0.35991,-0.60247 -0.56159,-1.10234 -0.2018,-0.49943 -0.6766,-1.37892 -1.05415,-1.95431 -0.37776,-0.57536 -0.73788,-1.22009 -0.80047,-1.43319 -0.0612,-0.21299 -0.4202,-0.89729 -0.79487,-1.52118 -0.37449,-0.62376 -0.82677,-1.72329 -1.00517,-2.44281 -0.17845,-0.72015 -0.53636,-1.40713 -0.79479,-1.52713 -0.25895,-0.12026 -0.87171,-1.22783 -1.36145,-2.46183 -0.48979,-1.23351 -0.96607,-2.31899 -1.05855,-2.41181 -0.0902,-0.0904 -0.42578,-0.84062 -0.74135,-1.66216 -0.31556,-0.82167 -1.26481,-3.13175 -2.1096,-5.13359 -1.89405,-4.48992 -2.44613,-5.99452 -3.62484,-9.87782 -1.3232,-4.36184 -2.8647,-8.47444 -3.83277,-10.22584 -0.4591,-0.8308 -0.76324,-1.66361 -0.67591,-1.8516 0.085,-0.18738 0.0173,-0.40607 -0.15394,-0.48582 -0.17172,-0.0778 -0.56676,-0.75677 -0.8778,-1.50514 -0.31112,-0.74831 -0.78363,-1.79109 -1.04986,-2.31733 -0.26618,-0.52615 -0.89725,-2.03782 -1.40231,-3.35937 -0.50515,-1.32114 -0.99206,-2.43683 -1.08228,-2.47866 -0.0883,-0.041 -0.53359,-0.93906 -0.98531,-1.99444 -1.71029,-3.99446 -2.36272,-5.35995 -3.47114,-7.26374 -0.628,-1.07873 -1.2937,-2.36467 -1.47931,-2.85827 -0.18596,-0.49309 -0.77326,-1.75732 -1.30548,-2.80967 -0.53236,-1.0519 -1.11832,-2.24619 -1.30191,-2.65411 -0.18361,-0.40758 -0.5233,-1.12501 -0.75466,-1.59379 -0.23081,-0.46922 -0.71782,-1.49096 -1.08121,-2.27123 -0.36395,-0.78 -0.89362,-1.67697 -1.17693,-1.99424 -0.28352,-0.31657 -0.63903,-0.82932 -0.78982,-1.13954 -0.74916,-1.54216 -1.79589,-3.35788 -1.98566,-3.4458 -0.11712,-0.0531 -0.2003,-0.29038 -0.18379,-0.52512 0.0154,-0.23404 -0.13065,-0.49975 -0.32572,-0.59026 -0.195,-0.0883 -0.5581,-0.66648 -0.80745,-1.27987 -0.24923,-0.61383 -0.75916,-1.59401 -1.13229,-2.17882 -0.37367,-0.58426 -0.88389,-1.50069 -1.13375,-2.036 -0.63848,-1.36683 -1.84875,-3.41614 -4.58034,-7.75699 -1.29912,-2.06392 -2.71353,-4.4165 -3.14302,-5.22741 -0.43012,-0.81108 -1.76003,-2.59651 -2.9561,-3.96742 -1.19609,-1.37084 -2.41528,-2.94869 -2.7096,-3.5064 -0.29415,-0.55779 -1.27452,-1.89329 -2.17878,-2.96724 -0.9043,-1.0745 -1.86014,-2.36025 -2.1243,-2.85782 -0.26397,-0.49731 -1.24283,-1.7986 -2.17513,-2.89155 -0.93221,-1.09338 -1.84826,-2.36717 -2.03622,-2.83098 -0.18773,-0.46387 -1.58806,-2.42003 -3.11181,-4.34657 -1.52385,-1.92653 -3.05253,-3.89003 -3.39737,-4.36297 -0.34467,-0.4734 -0.96602,-1.26621 -1.38034,-1.762 -1.77928,-2.12774 -4.11822,-5.23025 -4.80764,-6.37675 -0.40925,-0.68093 -0.8248,-1.27598 -0.92326,-1.32222 -0.0969,-0.0451 -0.96437,-1.02172 -1.92473,-2.16784 -0.96006,-1.14609 -2.58577,-2.97345 -3.6125,-4.06045 -1.0266,-1.0871 -2.37001,-2.59705 -2.98524,-3.35585 -0.61521,-0.75847 -1.37553,-1.67713 -1.68986,-2.04197 -0.31462,-0.36434 -1.21411,-1.40979 -1.99969,-2.32242 -0.7851,-0.91262 -1.77314,-1.98138 -2.19517,-2.37438 -0.42206,-0.39335 -1.12039,-1.31149 -1.55136,-2.04018 -0.43132,-0.72861 -1.00607,-1.528 -1.27716,-1.77615 -0.27104,-0.24813 -1.87665,-2.1818 -3.56745,-4.29649 -3.22475,-4.0333 -7.09471,-8.75729 -9.65017,-11.78027 -0.83219,-0.98473 -2.20124,-2.62517 -3.04201,-3.64504 -0.8408,-1.01985 -1.59527,-1.88504 -1.67638,-1.92278 -0.0794,-0.0367 -0.93061,-1.00552 -1.88777,-2.15124 -3.35807,-4.02019 -4.31738,-5.11768 -4.57597,-5.23771 -0.14363,-0.065 -0.77876,-0.74573 -1.41109,-1.50905 -1.18901,-1.43499 -3.66634,-4.06585 -3.95423,-4.19925 -0.0879,-0.0408 -0.43613,-0.38414 -0.76905,-0.76131 -0.33292,-0.3771 -0.87999,-0.94639 -1.21549,-1.26552 -0.33548,-0.31868 -1.32373,-1.31533 -2.19563,-2.2148 -3.45982,-3.56732 -5.53996,-5.54165 -8.7481,-8.30305 -1.84257,-1.58629 -4.17228,-3.66989 -5.17727,-4.63075 -3.03213,-2.89875 -9.12496,-8.58557 -10.01945,-9.35204 -0.46135,-0.39516 -0.96438,-0.87382 -1.11794,-1.06415 -0.15359,-0.18981 -1.2568,-1.22218 -2.45202,-2.2937 -3.31773,-2.97426 -11.77837,-10.76733 -12.21524,-11.25107 -0.21281,-0.23602 -1.07477,-1.0781 -1.9155,-1.87151 -2.01734,-1.90363 -2.71505,-2.62437 -5.25052,-5.42069 -1.17275,-1.29373 -3.15214,-3.4222 -4.39886,-4.73016 -1.24643,-1.30792 -2.61057,-2.7735 -3.03104,-3.25671 -0.42049,-0.48333 -1.4454,-1.61295 -2.27801,-2.51062 -0.83234,-0.89714 -1.52863,-1.75814 -1.5473,-1.91295 -0.0182,-0.15486 -0.19652,-0.35715 -0.39563,-0.44941 -0.19892,-0.0903 -1.05439,-1.00236 -1.90129,-2.02273 -0.8466,-1.02036 -2.30345,-2.76671 -3.2371,-3.88094 -0.93368,-1.11385 -2.62629,-3.15068 -3.76089,-4.52612 -1.13486,-1.37586 -3.16346,-3.82447 -4.50838,-5.44205 -1.34492,-1.61778 -3.31743,-4.0453 -4.38344,-5.39516 -1.06631,-1.34996 -2.39888,-3.02562 -2.9612,-3.72408 -0.56277,-0.69798 -1.18535,-1.48784 -1.38387,-1.75478 -0.61068,-0.82137 -4.0795,-5.32018 -6.49542,-8.42329 -1.26245,-1.62171 -2.35309,-3.09371 -2.42384,-3.27112 -0.0692,-0.17743 -0.54141,-0.51352 -1.04524,-0.74727 -0.50387,-0.23327 -0.87629,-0.51088 -0.82754,-0.61644 0.13437,-0.2901 -3.98835,-5.41539 -5.31348,-6.60505 -1.11248,-0.99921 -1.63984,-1.57691 -2.70295,-2.9601 -2.41666,-3.14477 -4.89124,-6.14232 -5.18209,-6.27704 -0.12549,-0.057 -0.76736,-0.99547 -1.42596,-2.08269 -0.65881,-1.08751 -1.45676,-2.34227 -1.77345,-2.78901 -0.31681,-0.44674 -0.54121,-0.88674 -0.49905,-0.97772 0.0412,-0.0892 -0.19623,-0.42978 -0.52985,-0.753 -0.33359,-0.32277 -0.56143,-0.68448 -0.50666,-0.80303 0.0537,-0.1185 -0.29596,-0.7118 -0.78039,-1.31833 -0.48428,-0.6062 -1.1226,-1.64758 -1.41815,-2.31406 -0.29615,-0.66658 -0.63371,-1.25637 -0.75067,-1.31083 -0.1173,-0.0531 -0.67135,-0.8711 -1.23123,-1.81539 -0.55976,-0.94385 -1.16455,-1.92273 -1.34361,-2.17454 -0.17901,-0.25171 -0.60784,-1.0438 -0.95368,-1.76019 -0.3458,-0.71584 -0.71841,-1.39345 -0.82908,-1.50512 -0.11057,-0.11155 -0.30669,-0.4371 -0.43571,-0.72353 -0.12864,-0.28665 -0.77782,-1.59206 -1.44132,-2.90179 -0.66381,-1.30934 -1.57295,-3.23243 -2.02093,-4.27331 -0.44763,-1.04095 -1.40212,-2.7114 -2.12115,-3.7122 -1.37694,-1.91593 -2.5296,-3.65602 -4.19531,-6.33263 -0.55405,-0.89022 -1.35487,-2.05992 -1.7794,-2.59951 -0.42434,-0.53916 -1.12054,-1.76661 -1.54748,-2.72715 -0.42647,-0.96074 -1.1642,-2.3024 -1.63941,-2.98192 -0.47476,-0.67942 -1.14258,-1.77096 -1.48361,-2.42592 -0.34101,-0.65452 -0.74343,-1.37946 -0.89393,-1.6103 -1.05494,-1.61589 -1.64469,-2.77928 -2.15889,-4.25977 -0.32515,-0.93553 -0.93227,-2.4699 -1.34943,-3.40906 -0.41727,-0.9396 -1.14202,-2.58746 -1.61045,-3.66262 -1.01689,-2.33306 -0.8148,-1.92446 -2.615,-5.28802 -0.80246,-1.49932 -1.56802,-2.77657 -1.70114,-2.83791 -0.1331,-0.0604 -0.51819,-0.84925 -0.85547,-1.74968 -0.55974,-1.49398 -1.93891,-4.20055 -3.40891,-6.68987 -0.31583,-0.53486 -0.90606,-1.85282 -1.31065,-2.92843 -0.40505,-1.07576 -1.48886,-3.82033 -2.40837,-6.0991 -2.45828,-6.09242 -4.02526,-10.2905 -3.92439,-10.51445 0.0489,-0.10787 -0.0911,-0.74253 -0.31509,-1.40951 -0.22203,-0.66689 -0.63547,-2.19999 -0.91843,-3.40725 -0.28328,-1.20695 -0.57628,-2.2655 -0.65155,-2.35214 -0.0734,-0.0847 -0.58618,-2.01362 -1.13614,-4.28239 -0.54997,-2.26845 -1.25799,-5.14979 -1.57331,-6.40243 -0.90647,-3.59999 -1.29496,-5.46238 -1.18729,-5.69479 0.0537,-0.11796 -0.0594,-0.72925 -0.25692,-1.35781 -0.19583,-0.6289 -0.52702,-1.83435 -0.73571,-2.67901 -0.20846,-0.8447 -0.54025,-2.15087 -0.73718,-2.90217 -0.19685,-0.75135 -0.37935,-2.00332 -0.40557,-2.78198 -0.0572,-1.74425 -0.28765,-3.75599 -0.72085,-6.33004 -0.0779,-0.47339 -0.11193,-0.93207 -0.07,-1.01917 0.0395,-0.0852 -0.0652,-0.85154 -0.23792,-1.69911 -0.1713,-0.84752 -0.26136,-1.64862 -0.20019,-1.78041 0.0597,-0.13176 0.006,-0.46039 -0.1226,-0.73016 -0.12822,-0.26976 -0.25362,-1.02866 -0.27841,-1.68606 -0.0243,-0.65772 -0.2866,-2.44658 -0.58186,-3.97534 -0.29478,-1.52869 -0.55453,-3.40315 -0.5768,-4.16499 -0.0218,-0.76226 -0.1108,-1.4183 -0.19671,-1.45791 -0.43317,-0.20082 -1.51407,-7.74901 -1.76464,-12.32523 -0.0423,-0.7907 -0.19323,-1.74999 -0.33323,-2.13143 -0.13997,-0.38142 -0.17628,-0.86209 -0.0792,-1.06775 0.3546,-0.76548 -0.0277,-4.73268 -0.61673,-6.38851 -0.33463,-0.94249 -0.55657,-1.82581 -0.49288,-1.96306 0.0623,-0.13716 0.0536,-0.48605 -0.0192,-0.77486 -0.0728,-0.28881 -0.0814,-1.01427 -0.0191,-1.61199 0.0623,-0.59778 0.0302,-1.86505 -0.0713,-2.81633 -0.10399,-0.95141 -0.13391,-1.84905 -0.0654,-1.99473 0.20364,-0.43948 0.1079,-2.21837 -0.16696,-3.12461 -0.14173,-0.4685 -0.17924,-1.60631 -0.0811,-2.52814 0.40921,-3.91676 0.53854,-9.10005 0.27113,-10.85904 -0.0695,-0.46754 -0.0762,-1.70153 -0.0184,-3.37746 0.0164,-0.47563 0.17133,-1.78806 0.34288,-2.91671 0.17211,-1.12858 0.36529,-2.62085 0.4293,-3.31625 0.0626,-0.69513 0.20014,-2.01619 0.30221,-2.93554 0.10262,-0.91897 0.18156,-1.90247 0.175,-2.18506 -0.006,-0.28239 0.0492,-0.64666 0.12572,-0.80889 0.0735,-0.16222 0.12066,-1.16476 0.0999,-2.22751 -0.0577,-3.17963 -0.1702,-2.66716 2.02152,-9.327 0.80491,-2.44608 1.44738,-4.67576 1.42798,-4.95466 -0.0954,-1.35714 1.45815,-5.75344 3.88015,-10.97225 1.37349,-2.95117 2.60112,-5.4407 2.73449,-5.52869 0.26134,-0.17245 2.0566,-3.07325 4.08995,-6.60817 2.63569,-4.58231 3.91945,-6.64243 4.34204,-6.96839 0.24034,-0.18519 0.81521,-0.95251 1.27752,-1.705 0.80918,-1.317592 3.84562,-5.770782 6.60143,-9.682881 0.72731,-1.032438 1.65569,-2.381676 2.06327,-2.998405 0.40716,-0.616724 1.38834,-1.743735 2.18055,-2.504464 0.79223,-0.760643 1.7356,-1.773542 2.09616,-2.250879 0.36051,-0.477232 1.29793,-1.562782 2.08232,-2.412119 0.78495,-0.849479 2.06892,-2.297613 2.8533,-3.218078 1.91103,-2.241568 8.64574,-7.660239 9.6502,-7.763829 0.22723,-0.02349 0.46327,-0.149921 0.52374,-0.281219 0.0594,-0.13137 1.35043,-0.994223 2.86599,-1.917574 1.51522,-0.923383 2.97153,-1.83006 3.23611,-2.014854 0.26459,-0.184834 0.85049,-0.484483 1.30147,-0.666032 0.4514,-0.181849 1.03616,-0.480056 1.30004,-0.662867 0.91202,-0.632697 3.48353,-1.928562 7.30324,-3.680336 2.23799,-1.026462 3.48123,-1.639882 4.86684,-2.404164 0.69013,-0.380255 2.03768,-1.038258 2.99566,-1.462114 0.9574,-0.4242 2.25258,-1.097154 2.87796,-1.494897 1.04768,-0.666662 6.96708,-3.081954 9.29576,-3.793079 4.99939,-1.52654 6.20001,-1.847165 6.46177,-1.725922 0.16591,0.077 0.35081,0.03405 0.41105,-0.09516 0.0587,-0.129448 0.88154,-0.407071 1.82485,-0.618602 0.9432,-0.210798 2.02407,-0.480953 2.40158,-0.600411 1.81387,-0.57377 4.79134,-1.346141 4.93387,-1.279985 0.13904,0.06437 2.45848,-0.355897 3.64183,-0.659651 0.22089,-0.05672 0.47659,-0.06837 0.56792,-0.02589 0.0893,0.04238 0.80548,-0.08806 1.58738,-0.289679 0.78142,-0.201707 1.57923,-0.293338 1.7729,-0.203663 0.1932,0.08966 0.53499,0.07574 0.75891,-0.03059 0.22384,-0.10675 1.82309,-0.387067 3.55383,-0.623385 4.64035,-0.63358 4.67738,-0.637664 6.81744,-0.736419 1.08552,-0.04988 2.23115,-0.104289 2.54559,-0.120468 0.31445,-0.01619 1.20572,-0.04538 1.98008,-0.06507 0.77435,-0.01969 1.44019,-0.105501 1.47983,-0.190825 0.0388,-0.08536 0.37176,-0.09778 0.73872,-0.02799 0.36691,0.07047 2.3597,0.107476 4.42812,0.08376 3.56202,-0.04098 6.31676,-0.05713 9.62585,-0.05601 0.8052,2.23e-4 2.33119,0.120557 3.3909,0.26749 1.05975,0.146886 2.22292,0.281104 2.58516,0.298364 0.36189,0.01719 0.96234,0.172223 1.33422,0.344509 0.372,0.172358 1.03906,0.35478 1.48265,0.405434 0.74156,0.08476 4.43534,1.20468 6.52338,1.977918 1.98511,0.734995 7.253,2.62238 8.66691,3.105166 0.83474,0.284972 1.91073,0.665642 2.39073,0.845858 6.94873,2.607556 8.66518,3.209333 10.41388,3.65073 1.12895,0.284906 2.1219,0.623063 2.20669,0.751375 0.0827,0.128363 1.10337,0.539385 2.26312,0.914319 4.64256,1.498802 9.91849,3.690389 22.57137,9.376193 9.73004,4.372313 13.25074,6.042355 13.28202,6.300014 z M 305.27195,61.939635 c -0.98948,-0.472536 -3.21199,-1.364921 -4.93919,-1.983395 -1.72741,-0.61849 -3.69065,-1.359516 -4.36336,-1.646696 -1.70951,-0.730201 -4.92928,-1.877483 -6.91339,-2.463589 -0.92129,-0.272057 -4.38077,-1.482261 -7.68809,-2.689246 -3.3074,-1.207065 -7.4285,-2.695974 -9.15828,-3.308697 -1.72979,-0.612813 -3.48084,-1.243968 -3.8904,-1.402575 -4.85509,-1.879289 -12.95273,-3.616349 -15.78061,-3.385051 -0.29659,0.02419 -1.65842,0.04078 -3.02594,0.03668 -1.36716,-0.004 -4.17885,0.01203 -6.2473,0.03578 -2.06883,0.02369 -4.06144,-0.01419 -4.42807,-0.08396 -0.36689,-0.07047 -0.69953,-0.05705 -0.73917,0.02809 -0.0388,0.08536 -0.70548,0.171205 -1.47984,0.190809 -0.77437,0.01969 -1.66515,0.04878 -1.97954,0.06507 -0.3147,0.01619 -1.46013,0.07027 -2.54562,0.120426 -2.14006,0.09878 -2.1776,0.102783 -6.81795,0.736398 -1.7304,0.236273 -3.32937,0.516846 -3.55333,0.623428 -0.22403,0.106717 -0.56575,0.120385 -0.75942,0.03049 -0.19336,-0.08966 -0.99135,0.002 -1.77282,0.203659 -0.78149,0.201675 -1.49594,0.332032 -1.58739,0.289689 -0.0895,-0.04228 -0.34658,-0.03049 -0.56744,0.02589 -1.1839,0.303763 -3.50337,0.723874 -3.64183,0.659643 -0.14279,-0.06617 -3.12005,0.706289 -4.93386,1.280042 -0.37758,0.119236 -1.45847,0.389534 -2.40206,0.60035 -0.9434,0.210773 -1.76464,0.489227 -1.8244,0.618718 -0.0587,0.129463 -0.24506,0.172472 -0.41151,0.09516 -0.26171,-0.121222 -1.46189,0.199403 -6.46127,1.725946 -2.32874,0.710988 -8.24811,3.126369 -9.29609,3.793095 -0.62549,0.397926 -1.9203,1.070514 -2.87818,1.494804 -0.95738,0.424093 -2.30551,1.081642 -2.99514,1.462085 -1.38623,0.764025 -2.62892,1.377723 -4.86681,2.404274 -3.81988,1.75173 -6.39124,3.047535 -7.30356,3.68026 -0.26349,0.183077 -0.84872,0.481272 -1.29972,0.66283 -0.45162,0.181288 -1.03726,0.480569 -1.30154,0.666055 -0.26454,0.184818 -1.72097,1.091418 -3.23627,2.014821 -1.51541,0.923442 -2.80487,1.786343 -2.86581,1.917618 -0.0594,0.131296 -0.29673,0.25782 -0.52419,0.281227 -1.004,0.103614 -7.73918,5.522179 -9.64967,7.763777 -0.78493,0.920545 -2.06886,2.36864 -2.8533,3.218068 -0.78494,0.849417 -1.7219,1.934906 -2.08238,2.412203 -0.36099,0.477264 -1.30833,1.48827 -2.10575,2.246536 -0.79732,0.758225 -1.60889,1.756253 -1.80406,2.217723 -0.1952,0.461499 -0.55615,0.990789 -0.80251,1.176125 -0.2464,0.185512 -1.0106,1.159132 -1.69871,2.163675 -0.68824,1.004734 -2.25006,3.275162 -3.47067,5.04557 -1.22076,1.770382 -2.59785,3.83448 -3.06016,4.58696 -0.46218,0.75243 -1.01662,1.50425 -1.23159,1.67058 -0.21539,0.16649 -0.79753,1.01707 -1.294,1.89039 -0.49613,0.87307 -1.04129,1.74613 -1.21118,1.94 -0.16947,0.19356 -0.981,1.5312 -1.80284,2.97224 -0.82176,1.44104 -2.00965,3.43607 -2.63956,4.433 -3.33077,5.27289 -7.78909,15.35755 -7.43337,16.8147 0.0505,0.21119 -0.56565,2.36365 -1.37214,4.78307 -0.80602,2.41979 -1.57234,4.91199 -1.70243,5.5389 -0.1301,0.6266 -0.33691,1.35635 -0.45983,1.62146 -0.12278,0.26514 -0.21988,0.71251 -0.21559,0.9943 0.004,0.28177 0.0216,1.38095 0.0389,2.44272 0.0173,1.06172 -0.0287,2.06333 -0.10446,2.22549 -0.0736,0.16249 -0.13171,0.52649 -0.12574,0.8092 0.006,0.28254 -0.0709,1.26578 -0.175,2.18502 -0.10225,0.9191 -0.23859,2.24016 -0.30247,2.93533 -0.0626,0.69552 -0.25699,2.18766 -0.42903,3.31625 -0.17204,1.12863 -0.32647,2.44134 -0.34299,2.91668 -0.0578,1.67589 -0.0511,2.90995 0.0184,3.37741 0.26766,1.75927 0.13854,6.9423 -0.27072,10.85901 -0.0941,0.92222 -0.0576,2.05969 0.0812,2.52826 0.27425,0.90619 0.36942,2.68476 0.16659,3.12492 -0.0659,0.14517 -0.0362,1.04296 0.0653,1.99431 0.10388,0.95133 0.13676,2.21861 0.0713,2.81636 -0.0623,0.59771 -0.0537,1.32319 0.0191,1.61196 0.0729,0.28884 0.0815,0.63768 0.0193,0.77491 -0.0622,0.13731 0.15832,1.02065 0.49317,1.96305 0.58811,1.65587 0.97125,5.62306 0.61663,6.38853 -0.0937,0.20564 -0.0576,0.68632 0.0792,1.06773 0.14,0.38154 0.28985,1.34094 0.33318,2.13171 0.0835,1.55916 0.25527,3.47081 0.51524,5.80012 0.23549,2.11125 1.06453,6.43893 1.2496,6.52485 0.0839,0.0389 0.17447,0.69568 0.19681,1.45791 0.0218,0.76186 0.2819,2.63622 0.57677,4.16499 0.29498,1.5288 0.55661,3.31763 0.58152,3.97532 0.0243,0.65771 0.15021,1.41632 0.2787,1.68604 0.12843,0.26985 0.18347,0.59841 0.12246,0.73021 -0.0597,0.13176 0.0284,0.93293 0.20021,1.78067 0.17106,0.84728 0.27808,1.61211 0.23776,1.69926 -0.0395,0.0851 -0.008,0.54534 0.07,1.01905 0.43334,2.57373 0.66253,4.58544 0.72091,6.32967 0.0255,0.77874 0.20863,2.03091 0.40549,2.7823 0.19685,0.75134 0.52866,2.05729 0.73742,2.90192 0.20851,0.84465 0.53957,2.05043 0.73563,2.67894 0.1961,0.629 0.3116,1.23979 0.25696,1.35811 -0.10759,0.23217 0.28057,2.09461 1.18704,5.69455 0.31551,1.25294 1.02355,4.13397 1.57341,6.40283 0.54988,2.26838 1.06127,4.1954 1.13633,4.282 0.0734,0.0847 0.36815,1.14515 0.65123,2.35253 0.28314,1.20687 0.69666,2.74037 0.91877,3.40712 0.22212,0.6667 0.36383,1.30113 0.31486,1.40945 -0.0962,0.22521 1.46611,4.42193 3.92455,10.51416 0.9195,2.27879 2.00319,5.02335 2.40828,6.09927 0.40504,1.07549 0.99491,2.39341 1.31093,2.92831 1.46964,2.48935 2.84904,5.19592 3.40885,6.69 0.33777,0.90016 0.72266,1.6875 0.85535,1.74949 0.13307,0.0603 0.89852,1.33865 1.7011,2.83795 1.80044,3.36359 1.59832,2.95491 2.61527,5.28806 0.46836,1.07509 1.19319,2.72319 1.6103,3.66252 0.41706,0.93932 1.02434,2.47354 1.34947,3.40905 0.5142,1.48059 1.10391,2.64422 2.15868,4.25987 0.1508,0.23074 0.55308,0.95567 0.89422,1.61067 0.34105,0.65446 1.00858,1.74648 1.48366,2.42556 0.4749,0.67942 1.21279,2.0214 1.63937,2.98184 0.4265,0.96104 1.12322,2.18798 1.54752,2.72745 0.42435,0.53929 1.22502,1.70905 1.7791,2.59923 1.666,2.6766 2.81865,4.41671 4.19546,6.33277 0.71916,1.00092 1.67367,2.67112 2.12118,3.7121 0.44757,1.04098 1.35689,2.96404 2.02079,4.27368 0.6637,1.30928 1.31248,2.61495 1.44148,2.90139 0.1285,0.28675 0.32518,0.61204 0.43548,0.72381 0.11044,0.11192 0.4838,0.7888 0.82931,1.50527 0.34588,0.71582 0.77471,1.50807 0.95368,1.75981 0.179,0.25211 0.7835,1.23062 1.34358,2.17477 0.5598,0.94405 1.11375,1.76094 1.23092,1.81549 0.11726,0.053 0.45498,0.644 0.75066,1.31047 0.29597,0.66643 0.93397,1.70787 1.41829,2.31448 0.48425,0.60611 0.83548,1.19941 0.78063,1.31789 -0.0538,0.11884 0.17309,0.4802 0.50659,0.80333 0.33362,0.32295 0.57198,0.66172 0.52984,0.75313 -0.0412,0.0891 0.18229,0.53096 0.4989,0.97748 0.31674,0.44648 1.1148,1.70162 1.77343,2.78883 0.65864,1.08716 1.30043,2.02433 1.42621,2.08264 0.29072,0.13476 2.76541,3.13252 5.18183,6.27706 1.0631,1.38348 1.59058,1.9613 2.70295,2.96013 1.32509,1.19003 5.44818,6.31501 5.31378,6.60531 -0.0479,0.10526 0.32339,0.3829 0.82732,0.61621 0.50403,0.23371 0.9743,0.56983 1.0452,0.74723 0.0693,0.17737 1.16162,1.64956 2.42394,3.2711 2.41571,3.10314 5.88462,7.60192 6.49555,8.4233 0.19853,0.26694 0.8211,1.0568 1.38362,1.75485 0.56257,0.6984 1.89498,2.37421 2.96112,3.72406 1.06615,1.34979 3.03885,3.77773 4.38361,5.39522 1.34479,1.61746 3.37347,4.06649 4.50831,5.44192 1.13483,1.37545 2.82712,3.41229 3.76091,4.52657 0.93386,1.1138 2.39057,2.86014 3.23734,3.88052 0.84666,1.02035 1.70228,1.93063 1.90124,2.02316 0.19897,0.0903 0.37692,0.29416 0.39564,0.44897 0.0182,0.15481 0.71473,1.01578 1.54731,1.91302 0.8323,0.89757 1.85753,2.02723 2.278,2.51055 0.42049,0.48334 1.78441,1.9488 3.03107,3.25673 1.24648,1.30799 3.2261,3.43685 4.39883,4.73014 2.53522,2.79676 3.23314,3.51705 5.25035,5.42073 0.84066,0.79341 1.70269,1.63546 1.91568,1.8715 0.43677,0.48387 8.89732,8.2768 12.21498,11.25133 1.19516,1.07125 2.29859,2.10361 2.4521,2.29349 0.15374,0.19018 0.70322,0.71126 1.22134,1.15755 0.51821,0.44632 2.82264,2.58462 5.12125,4.75152 4.49132,4.23393 6.46364,6.04512 9.24662,8.49115 2.75818,2.4236 6.1412,5.5672 7.78073,7.23009 0.82198,0.83323 2.17283,2.18501 3.00189,3.00373 0.82882,0.81861 1.67867,1.68745 1.88807,1.93051 0.40943,0.47436 2.94416,3.04085 3.53896,3.58314 0.24142,0.22001 0.41999,0.19988 0.54123,-0.06 0.0972,-0.21455 0.34328,-0.31431 0.54223,-0.2221 0.43245,0.20026 0.19067,0.86712 -0.29439,0.81269 -0.33473,-0.0368 1.55967,2.41 2.03617,2.6308 0.24494,0.11341 1.24748,1.26389 4.59897,5.27731 0.98788,1.18317 2.13342,2.29463 2.57634,2.49979 0.52647,0.24403 0.74385,0.48543 0.63964,0.7108 -0.085,0.18723 0.33505,0.91206 0.9382,1.60995 1.67214,1.93697 3.65545,4.31172 6.63341,7.94316 1.61742,1.9723 2.79276,3.20865 2.92113,3.07256 0.35901,-0.38148 0.96033,0.0665 0.65322,0.48803 -0.21771,0.29757 0.29554,1.11195 2.30869,3.66307 1.42357,1.80448 2.821,3.49005 3.10512,3.74619 0.28415,0.25568 0.8165,0.95593 1.1832,1.55562 0.36645,0.59964 1.01985,1.46521 1.45188,1.92357 0.43213,0.45838 1.46974,1.63269 2.30585,2.60969 0.83598,0.977 1.7773,2.07473 2.09185,2.4388 0.31452,0.36456 1.17828,1.41632 1.91944,2.33787 0.74136,0.92164 1.49137,1.74206 1.66687,1.82348 0.27596,0.12754 1.86784,1.91094 6.05937,6.78742 0.54948,0.6393 1.325,1.66816 1.72339,2.28631 0.73186,1.1353 5.61822,7.43584 10.49742,13.53547 0.81616,1.02021 1.76,2.41663 2.09713,3.10324 0.33712,0.68663 1.15196,1.82593 1.81059,2.53155 0.65858,0.70564 1.59708,1.93158 2.0858,2.72467 0.48874,0.79318 1.55082,2.21187 2.36017,3.15319 0.80931,0.94092 1.70178,2.14427 1.98328,2.67354 0.28155,0.52899 1.65377,2.33762 3.04976,4.01865 1.39605,1.68098 2.74258,3.49908 2.99253,4.04022 0.903,1.95493 3.95357,6.59672 4.40502,6.70308 0.28347,0.0651 0.3948,0.25455 0.2878,0.48514 -0.0938,0.20689 0.1264,0.84151 0.49373,1.41016 0.36743,0.56856 0.68554,1.17876 0.70714,1.35617 0.0209,0.17747 0.18139,0.38912 0.35597,0.46961 0.17442,0.0791 0.55583,0.73495 0.84739,1.45293 0.29137,0.71851 0.91354,1.91652 1.38154,2.66307 0.46843,0.74617 0.98881,1.75655 1.15683,2.24473 0.20689,0.60193 0.48899,0.92305 0.87604,0.99715 0.44587,0.0834 0.54218,0.26164 0.43902,0.80295 -0.0715,0.38161 -0.0259,0.74249 0.10265,0.80246 0.20707,0.0939 1.22918,1.85594 2.00666,3.45539 0.15089,0.31009 0.50624,0.82301 0.78992,1.14003 0.28377,0.31653 0.81332,1.21373 1.1768,1.99411 0.36376,0.77987 0.85011,1.80193 1.08122,2.27093 0.23072,0.46962 0.57114,1.18617 0.75467,1.59405 0.18357,0.40772 0.7637,1.59862 1.28764,2.64698 0.52373,1.04879 1.2725,2.58176 1.66333,3.40715 0.39074,0.82586 1.06109,2.11916 1.48942,2.87464 0.79339,1.39948 1.64875,3.225 3.11782,6.65657 0.45189,1.05528 0.89539,1.95301 0.98546,1.9949 0.0883,0.0409 0.57703,1.15714 1.08216,2.47865 0.50489,1.32115 1.14202,2.83592 1.41594,3.3656 0.27321,0.5298 0.76304,1.57999 1.08732,2.33436 0.32452,0.7547 0.71313,1.42905 0.86408,1.49903 0.15103,0.0683 0.20328,0.28081 0.11638,0.46826 -0.085,0.18786 0.2174,1.02111 0.67611,1.85159 0.96806,1.7514 2.50931,5.86398 3.83261,10.22627 1.18404,3.90191 1.75009,5.44554 3.55885,9.70283 0.80935,1.90432 1.76038,4.2155 2.11354,5.13596 0.35315,0.92003 0.71589,1.74754 0.80638,1.83834 0.0885,0.0887 0.56491,1.17465 1.0551,2.40853 0.48985,1.23349 1.10213,2.34176 1.36118,2.46139 0.25883,0.1197 0.61673,0.807 0.79485,1.52702 0.17842,0.72008 0.63084,1.81915 1.00545,2.44334 0.37457,0.62371 0.7319,1.30838 0.79491,1.52077 0.0611,0.21292 0.4225,0.85785 0.80041,1.43306 0.37776,0.57534 0.85212,1.45498 1.05402,1.95466 0.20193,0.49957 0.4545,0.99588 0.56158,1.10203 0.10727,0.10669 0.59559,1.20366 1.08538,2.43762 0.49004,1.23347 0.99914,2.29324 1.13163,2.3548 0.13243,0.06 0.19063,0.22012 0.12899,0.3528 -0.0601,0.1326 0.0499,0.31643 0.24998,0.40898 0.19896,0.0901 0.32484,0.24935 0.27995,0.34914 -0.12812,0.28545 1.55073,4.98228 2.07867,5.81476 0.46101,0.72708 1.25572,2.46858 2.88843,6.32927 0.43624,1.03174 1.19127,2.65361 1.67767,3.6039 0.4864,0.95019 1.19858,2.49219 1.58264,3.42618 0.63059,1.53338 2.09987,4.74378 4.42831,9.67495 0.45928,0.97275 0.92975,1.81681 1.04558,1.8759 0.1157,0.0576 0.47733,0.72546 0.80357,1.48074 0.8706,2.0151 3.10842,6.33676 3.63673,7.02281 0.25158,0.32669 0.55433,0.81115 0.67289,1.0766 0.11858,0.26554 0.50672,1.13471 0.8622,1.93188 0.35555,0.79709 1.0181,1.92058 1.47287,2.49605 0.45442,0.57568 1.18532,1.70072 1.62421,2.50009 0.43888,0.79967 1.15432,1.93701 1.59013,2.52803 0.4358,0.59056 0.8912,1.31762 1.01239,1.61561 0.41304,1.01633 1.58039,3.27762 1.86515,3.61318 0.15626,0.18409 0.48328,0.61658 0.72653,0.96101 0.38653,0.54656 0.47292,0.5853 0.6852,0.30558 0.40914,-0.53847 1.00592,-0.0483 0.6361,0.52171 -0.23147,0.35685 -0.19182,0.67924 0.13396,1.08919 1.45578,1.83385 3.2263,4.94772 4.19295,7.37475 0.60771,1.52581 1.368,3.11043 1.68978,3.52195 0.32141,0.4115 0.60805,0.83934 0.63688,0.95096 0.0465,0.18429 0.34763,0.59706 2.05785,2.8287 0.79937,1.04311 3.11302,3.70062 3.2955,3.78512 0.17153,0.0778 4.017,4.71988 5.45032,6.57709 0.22662,0.29337 0.59212,0.76452 0.81238,1.04722 0.22023,0.28262 0.99904,1.09033 1.73093,1.79528 0.7319,0.70496 1.7491,1.75334 2.2605,2.33038 0.51132,0.57691 1.07476,1.11584 1.25203,1.1981 0.1773,0.0804 1.32673,1.34731 2.55425,2.81116 3.50795,4.18387 4.43291,5.08181 6.12824,5.94823 0.94314,0.4822 2.44681,1.67919 5.56333,4.42871 0.93646,0.82595 3.86065,3.69679 7.04675,6.91796 1.99931,2.02091 3.73825,3.67852 5.18089,4.93833 0.57346,0.50101 1.69951,1.48431 2.50229,2.18572 0.80287,0.7015 2.12646,1.68491 2.94155,2.18591 0.81507,0.501 2.42925,1.56882 3.58711,2.37297 1.1577,0.80471 3.00263,2.08577 4.09975,2.84693 1.09724,0.76112 2.76927,1.98873 3.71584,2.72723 0.94666,0.73899 2.72669,1.87516 3.95591,2.52581 1.22917,0.65011 4.07732,2.1838 6.32921,3.40873 4.55969,2.47937 13.69224,6.81022 15.84977,7.51636 0.76949,0.25157 2.10113,0.64918 2.9594,0.88322 0.85814,0.23367 2.58022,0.78414 3.82692,1.22312 1.24652,0.43899 2.70314,0.85084 3.23695,0.91598 1.40114,0.17053 4.22424,0.76476 5.87175,1.23542 3.49589,0.99915 4.53118,1.21246 5.07196,1.04385 0.31867,-0.0962 0.69113,-0.12761 0.82869,-0.0629 0.13743,0.0624 0.60185,0.034 1.03194,-0.0629 0.43026,-0.0987 1.46805,-0.0937 2.30619,0.007 0.83826,0.10347 1.67126,0.14018 1.8512,0.0805 0.18026,-0.0556 0.53437,-0.009 0.78768,0.10811 0.2533,0.11725 1.22087,0.1769 2.15012,0.13227 1.68691,-0.0791 5.202,-0.0785 6.41135,0.002 0.35152,0.0231 0.69067,-0.0665 0.75371,-0.20386 0.0615,-0.13591 0.28787,-0.16616 0.49951,-0.0673 0.21153,0.0965 0.7439,0.15862 1.18281,0.13376 0.43891,-0.024 1.56201,0.0134 2.49558,0.0832 0.93368,0.0698 1.99961,0.0456 2.36879,-0.0535 0.91461,-0.25152 3.25308,-0.24838 3.79928,0.005 0.52519,0.24316 2.77216,0.0682 4.41143,-0.34017 1.34293,-0.3366 1.32744,-0.3306 4.2869,-1.56117 1.23718,-0.5138 2.36681,-0.88533 2.51059,-0.82439 0.26543,0.11204 2.47338,-1.19692 2.6604,-1.57752 0.0569,-0.11336 0.81305,-0.46522 1.68199,-0.78029 0.87069,-0.31031 2.08037,-0.87457 2.69285,-1.24177 1.77741,-1.06767 6.06716,-3.32533 6.52472,-3.43351 0.22989,-0.0541 0.99977,-0.60236 1.71048,-1.21635 0.71078,-0.61437 1.9114,-1.37642 2.66826,-1.69288 0.75695,-0.31645 1.74389,-0.86722 2.19418,-1.22169 0.44989,-0.35535 1.31312,-0.82942 1.91834,-1.05283 0.60577,-0.22255 1.37882,-0.54094 1.71872,-0.70617 0.33715,-0.17018 0.75637,-0.287 0.92812,-0.26466 0.17042,0.0186 0.80985,-0.63601 1.42085,-1.4567 0.61117,-0.82037 1.58463,-1.78323 2.16347,-2.1398 0.57864,-0.35701 1.09194,-0.73411 1.14032,-0.83806 0.0468,-0.10526 0.52277,-0.51345 1.05457,-0.90898 1.15119,-0.8567 3.88297,-3.58026 4.8107,-4.79659 0.36304,-0.47633 1.3481,-1.60187 2.18875,-2.50085 0.84075,-0.89929 1.86612,-2.10703 2.27916,-2.68337 0.41275,-0.57641 1.38083,-1.57757 2.15105,-2.22501 3.06741,-2.57838 3.89588,-3.36283 5.75848,-5.45582 1.06611,-1.19753 2.26219,-2.46012 2.65816,-2.80587 0.39589,-0.34573 0.81328,-0.83026 0.9277,-1.07726 0.1143,-0.24683 0.78245,-1.08602 1.48493,-1.86475 0.70233,-0.77892 1.61498,-1.91894 2.02818,-2.533 0.41315,-0.61371 1.43673,-2.11672 2.27455,-3.33982 3.1061,-4.53358 6.71543,-11.75292 8.38653,-16.77443 1.66907,-5.01661 2.4557,-7.656 2.51809,-8.45113 0.0284,-0.36835 0.28479,-1.43924 0.56868,-2.3803 0.28381,-0.94088 0.50415,-2.12468 0.48965,-2.63083 -0.0143,-0.50614 0.15285,-1.61158 0.37204,-2.45642 0.21912,-0.84491 0.61853,-2.95008 0.8874,-4.67854 0.26876,-1.72807 0.56006,-3.48203 0.64679,-3.89803 0.0849,-0.416 0.15907,-1.74275 0.16048,-2.94827 10e-4,-1.20599 0.0621,-2.51205 0.13771,-2.90256 0.24646,-1.29515 0.15599,-9.84607 -0.11579,-10.95701 -0.0651,-0.27247 -0.12643,-0.89324 -0.13247,-1.37935 -0.006,-0.4862 -0.0919,-1.31788 -0.19498,-1.84806 -0.18359,-0.96429 -0.78966,-6.10675 -1.18095,-10.02313 -0.1145,-1.1441 -0.35377,-2.83186 -0.53211,-3.75104 -0.17834,-0.91871 -0.29937,-1.72462 -0.26897,-1.79035 0.0666,-0.14664 -0.88936,-4.74835 -1.83986,-8.84257 -1.31712,-5.67376 -1.5975,-6.80915 -1.90711,-7.72403 -0.17006,-0.50242 -0.44717,-1.61092 -0.61613,-2.46312 -0.16882,-0.85274 -0.46858,-2.05443 -0.66623,-2.67111 -0.19775,-0.61653 -0.56348,-1.96056 -0.81316,-2.98614 -0.24956,-1.02613 -0.68846,-2.63925 -0.97516,-3.58473 -0.28675,-0.94585 -0.56865,-2.02008 -0.62649,-2.38675 -0.119,-0.75253 -0.69343,-2.49149 -3.38322,-10.24149 -1.03294,-2.97581 -2.7629,-8.06159 -3.84471,-11.30189 -1.08172,-3.23977 -2.48261,-7.1184 -3.11308,-8.61883 -3.78087,-8.99744 -4.84669,-11.42044 -6.35755,-14.4516 -0.33591,-0.67256 -1.4875,-3.01835 -1.96463,-4.0029 -0.90022,-1.85381 -2.2759,-4.35222 -3.17466,-5.76644 -0.55902,-0.87943 -1.15147,-1.90816 -1.31636,-2.28543 -0.16509,-0.3774 -0.77688,-1.3025 -1.35949,-2.05576 -0.58243,-0.75334 -1.55298,-2.37761 -2.15652,-3.60944 -0.60334,-1.23224 -1.54281,-2.8808 -2.08713,-3.66416 -0.54415,-0.78308 -1.12221,-1.61742 -1.28439,-1.85379 -0.16218,-0.23588 -0.68789,-1.17184 -1.16815,-2.07912 -0.48038,-0.90715 -0.94917,-1.68464 -1.04201,-1.7277 -0.091,-0.0423 -0.36713,-0.42042 -0.60979,-0.83878 -0.2427,-0.41835 -1.01416,-1.65764 -1.71455,-2.7538 -0.70021,-1.09657 -1.34334,-2.16574 -1.42913,-2.37649 -0.2937,-0.72047 -0.75105,-1.53708 -1.27062,-2.2697 -0.28603,-0.40309 -0.82852,-1.34617 -1.20596,-2.09622 -1.27827,-2.54015 -3.15387,-6.16546 -3.78896,-7.3231 -0.34749,-0.63374 -0.97163,-2.0251 -1.38678,-3.09178 -0.41469,-1.06709 -0.93943,-2.24151 -1.16506,-2.6098 -0.38287,-0.62542 -1.62355,-3.39237 -2.84187,-6.33735 -0.59554,-1.4396 -0.75236,-1.74399 -1.46851,-2.84963 -0.50292,-0.77605 -0.64971,-1.06606 -1.23527,-2.43988 -0.16053,-0.376 -0.66267,-1.14122 -1.11632,-1.6999 -0.45365,-0.5586 -1.04059,-1.54591 -1.30428,-2.1935 -0.26356,-0.6478 -1.01836,-2.17143 -1.67714,-3.38616 -0.65879,-1.2148 -1.59802,-3.16542 -2.087,-4.3349 -0.48924,-1.16948 -0.96358,-2.25514 -1.05478,-2.41245 -0.09,-0.15761 -0.40131,-0.77283 -0.6897,-1.36753 -0.28859,-0.59464 -0.87644,-1.66806 -1.30733,-2.38466 -0.43046,-0.71702 -0.79828,-1.56897 -0.81692,-1.89392 -0.0183,-0.32453 -0.16442,-0.65446 -0.32363,-0.7331 -0.15951,-0.0768 -0.60264,-0.90994 -0.98501,-1.84769 -0.38215,-0.93785 -1.01057,-2.37854 -1.39634,-3.20162 -0.38525,-0.82359 -0.93584,-2.03373 -1.22262,-2.69025 -0.28658,-0.65651 -0.6029,-1.23119 -0.70217,-1.27744 -0.0978,-0.0452 -0.1192,-0.22046 -0.0434,-0.38677 0.0751,-0.16599 -0.16915,-0.97179 -0.54261,-1.78928 -0.37345,-0.81755 -1.20339,-2.94847 -1.84426,-4.73573 -0.64066,-1.7874 -1.29169,-3.30834 -1.44644,-3.37989 -0.15472,-0.0701 -0.29833,-0.47683 -0.31902,-0.90003 -0.0202,-0.42317 -0.5395,-2.22803 -1.1533,-4.01041 -0.61394,-1.78261 -1.34711,-3.92614 -1.62963,-4.76322 -0.2826,-0.83671 -0.69903,-1.87104 -0.92529,-2.29837 -0.22595,-0.42725 -0.52403,-1.30228 -0.66239,-1.94511 -0.138,-0.64296 -0.66792,-2.04657 -1.17791,-3.11946 -0.50988,-1.07267 -0.87444,-2.06342 -0.81263,-2.20047 0.0625,-0.13774 -0.27628,-1.35105 -0.75575,-2.69593 -0.47943,-1.34489 -0.88938,-3.03656 -0.91049,-3.75969 -0.0207,-0.72325 -0.18741,-1.61811 -0.36988,-1.98928 -0.18298,-0.37081 -0.32591,-1.02978 -0.3194,-1.4637 0.0107,-0.71707 -1.0602,-2.7726 -1.56754,-3.00725 -0.11462,-0.0521 -0.30424,-0.40481 -0.42173,-0.78122 -0.11691,-0.3766 -0.31136,-0.73033 -0.43211,-0.78598 -0.12059,-0.0546 -0.41074,-0.55284 -0.64501,-1.10454 -0.9471,-2.23029 -4.82672,-12.78671 -5.1573,-14.03355 -0.35195,-1.32714 -2.57572,-8.00939 -5.46312,-16.4151 -0.82943,-2.41453 -1.95547,-5.78422 -2.50253,-7.48769 -0.54717,-1.70338 -1.15004,-3.50432 -1.34014,-4.00227 -0.63483,-1.66348 -3.00062,-9.70037 -3.54008,-12.02605 -0.29287,-1.26383 -0.58094,-2.38565 -0.64017,-2.49366 -0.11817,-0.21665 -0.62012,-2.74543 -0.91158,-4.59662 -0.13559,-0.86114 -0.35763,-1.26414 -0.81266,-1.4752 -0.52934,-0.24527 -0.56577,-0.36402 -0.23686,-0.77129 0.21385,-0.26465 0.36171,-0.69044 0.32828,-0.94599 -0.0396,-0.31074 -0.10851,-0.36562 -0.20419,-0.1656 -0.0775,0.16461 -0.31867,0.21844 -0.53313,0.11896 -0.26525,-0.12265 -0.28299,-0.31022 -0.0542,-0.58592 0.32107,-0.38947 -0.0166,-2.50913 -0.52408,-3.28543 -0.12094,-0.18457 -0.16205,-0.46803 -0.0912,-0.62888 0.0679,-0.16109 -0.10464,-0.92385 -0.3867,-1.69469 -0.282,-0.77073 -0.48028,-1.47073 -0.44098,-1.55587 0.0385,-0.0831 -0.0852,-0.67465 -0.28098,-1.30971 -0.1939,-0.63554 -0.59071,-2.25404 -0.8814,-3.59717 -0.29074,-1.34312 -0.5753,-2.52925 -0.63268,-2.63636 -0.056,-0.10711 -0.48918,-1.69153 -0.9599,-3.52048 -1.17164,-4.55143 -1.7099,-6.52587 -2.58639,-9.49 -0.20441,-0.68969 -0.48678,-1.7861 -0.62848,-2.43686 -0.14144,-0.65028 -0.66042,-2.67037 -1.15316,-4.48876 -1.52788,-5.63929 -1.68138,-6.22709 -1.97322,-7.55955 -0.156,-0.7119 -0.30916,-1.56319 -0.34035,-1.89204 -0.0305,-0.32888 -0.26251,-1.18089 -0.51431,-1.89317 -0.25143,-0.71224 -0.40605,-1.40561 -0.34324,-1.54123 0.0612,-0.13556 -0.0655,-0.70898 -0.28818,-1.27431 -0.22101,-0.56586 -0.35785,-1.12393 -0.30409,-1.24037 0.0529,-0.11685 -0.0933,-0.78759 -0.33202,-1.49068 -0.2369,-0.70275 -0.4012,-1.34321 -0.36575,-1.42312 0.0358,-0.0774 -0.0437,-0.51225 -0.17826,-0.96146 -0.34444,-1.15825 -1.02423,-4.22202 -1.08749,-4.90236 -0.0286,-0.31526 -0.14111,-0.85613 -0.24867,-1.20173 -0.10745,-0.34543 -0.14655,-0.73411 -0.0845,-0.86345 0.0586,-0.12894 -0.0983,-0.77919 -0.35596,-1.44417 -0.25581,-0.66496 -0.41988,-1.3062 -0.36501,-1.42461 0.10633,-0.22992 -0.62728,-3.16257 -1.31524,-5.25784 -0.22791,-0.69475 -0.43908,-1.53459 -0.46873,-1.86645 -0.0291,-0.33185 -0.25643,-1.44726 -0.50334,-2.47885 -0.2469,-1.03123 -0.55266,-2.36277 -0.67926,-2.95884 -0.12628,-0.59608 -0.43075,-1.78822 -0.67618,-2.64924 -0.2454,-0.86105 -0.71374,-2.50019 -1.04026,-3.64289 -0.32672,-1.14263 -0.77481,-2.95898 -0.99593,-4.03643 -0.22109,-1.07732 -0.49251,-2.26458 -0.60299,-2.63804 -0.11025,-0.37349 -0.41063,-1.63301 -0.66734,-2.79879 -0.25631,-1.16615 -0.75437,-3.04396 -1.1065,-4.17289 -0.35215,-1.12893 -0.85548,-3.07578 -1.11846,-4.32655 -0.26323,-1.25027 -0.69514,-2.96699 -0.95956,-3.81433 -0.49381,-1.5837 -0.61267,-2.01839 -1.3282,-4.86287 -0.68253,-2.71385 -0.86802,-3.33211 -2.01685,-6.71823 -0.60415,-1.78054 -1.30158,-3.98661 -1.54976,-4.90268 -0.24826,-0.91571 -0.89248,-2.93951 -1.43138,-4.4968 -0.53866,-1.5573 -1.87586,-5.4492 -2.97081,-8.64863 -2.97589,-8.69301 -6.46865,-18.24087 -7.87832,-21.53557 -0.68779,-1.60771 -1.46132,-3.4842 -1.71874,-4.17006 -0.25834,-0.68566 -0.89708,-2.16839 -1.42077,-3.29457 -0.52359,-1.12612 -1.00356,-2.22382 -1.06651,-2.43956 -0.0996,-0.35048 -1.90963,-4.36558 -3.04464,-6.76315 -0.84384,-1.78219 -2.20358,-4.71156 -2.78136,-5.9929 -1.05731,-2.34374 -2.48071,-5.16828 -2.9874,-5.92787 -0.38865,-0.58219 -3.47685,-6.33779 -3.82964,-7.13689 -0.36074,-0.81716 -0.652,-1.30945 -4.40943,-7.44559 -1.06717,-1.74316 -2.05059,-3.22051 -2.18527,-3.2829 -0.13457,-0.061 -0.20776,-0.1953 -0.16287,-0.29516 0.1169,-0.26145 -7.35803,-11.98666 -9.58225,-15.03082 -0.29587,-0.4046 -0.84407,-1.21295 -1.2183,-1.79593 -0.37413,-0.58306 -1.33294,-1.92766 -2.13034,-2.98819 -0.7974,-1.06057 -1.51903,-2.06343 -1.60354,-2.22836 -0.0828,-0.16507 -0.51847,-0.79396 -0.96358,-1.39748 -0.4452,-0.6038 -1.27632,-1.73359 -1.84653,-2.5105 -1.5538,-2.11636 -8.28914,-10.59101 -10.12915,-12.74383 -0.88631,-1.03726 -2.29089,-2.69525 -3.12157,-3.68443 -5.49744,-6.54796 -6.51255,-7.69637 -7.004,-7.92399 -0.23972,-0.11111 -0.49573,-0.42728 -0.56851,-0.70292 -0.0713,-0.27526 -0.22502,-0.54344 -0.33815,-0.59609 -0.11328,-0.0513 -0.74261,-0.72124 -1.39905,-1.48679 -0.65596,-0.76557 -1.42409,-1.60153 -1.70666,-1.85828 -0.57051,-0.51856 -2.81507,-3.05996 -3.34228,-3.78437 -0.18591,-0.25564 -0.81693,-0.88499 -1.4021,-1.39908 -0.58545,-0.51408 -1.14999,-1.11136 -1.25484,-1.32728 -0.10537,-0.21558 -1.02885,-1.20908 -2.05284,-2.20716 -1.02401,-0.99821 -2.29492,-2.30336 -2.82384,-2.90041 -0.52879,-0.59704 -2.0401,-2.17133 -3.35857,-3.49824 -1.31825,-1.32695 -2.57005,-2.60837 -2.78117,-2.84735 -0.21151,-0.23931 -0.98581,-0.9863 -1.72078,-1.65994 -1.516,-1.38875 -4.27544,-4.03336 -9.83797,-9.42773 -2.11214,-2.04785 -4.91411,-4.6765 -6.22735,-5.84146 -1.31277,-1.165 -3.26645,-2.92231 -4.3414,-3.90567 -6.52475,-5.96788 -8.06641,-7.33882 -11.3581,-10.10114 -0.60925,-0.51171 -1.40549,-1.25523 -1.76947,-1.65264 -0.36356,-0.39749 -1.23704,-1.14296 -1.94065,-1.6563 -1.10157,-0.80381 -3.10898,-2.49651 -5.45816,-4.60263 -0.34961,-0.31336 -0.91999,-0.70169 -1.26752,-0.86254 -0.34725,-0.16122 -0.6461,-0.41201 -0.66361,-0.55744 -0.0172,-0.14551 -0.81562,-0.78674 -1.77362,-1.42494 -1.95561,-1.30272 -3.35401,-2.44094 -3.55844,-2.89743 -0.0732,-0.16822 -0.55807,-0.50078 -1.07298,-0.73915 -0.5152,-0.23875 -1.67061,-1.03093 -2.5676,-1.76039 -0.89718,-0.72954 -2.28041,-1.774205 -3.07371,-2.32188 -8.10763,-5.597612 -13.73636,-9.236551 -16.90935,-10.934333 -1.48056,-0.792176 -2.82744,-1.616241 -2.99306,-1.831292 -0.16559,-0.215117 -2.48354,-1.47121 -5.15063,-2.791408 -7.84278,-3.881923 -10.36241,-5.252427 -13.0319,-7.08888 -1.38625,-0.95379 -2.93757,-1.927433 -3.44713,-2.163496 -0.50949,-0.236162 -0.94189,-0.55975 -0.96111,-0.719195 -0.0206,-0.176921 -4.30869,-2.206465 -11.00458,-5.2094 -6.03293,-2.705829 -11.77862,-5.306121 -12.76804,-5.778596 z M 547.91456,405.59136 c -0.0902,0.19894 -0.33044,0.28617 -0.52942,0.19387 -0.19893,-0.0902 -0.28632,-0.33037 -0.19422,-0.52928 0.0908,-0.19896 0.3304,-0.28633 0.52937,-0.19382 0.19892,0.0902 0.28631,0.33024 0.19413,0.52921 z m 95.06053,241.7715 c -0.0902,0.19897 -0.33042,0.28636 -0.52931,0.19421 -0.19898,-0.0902 -0.28635,-0.33047 -0.19423,-0.52934 0.0901,-0.19895 0.33035,-0.28632 0.52931,-0.19421 0.19887,0.0902 0.28631,0.33037 0.19414,0.52937 z M 314.10664,512.54377 c -0.091,0.19894 -0.33023,0.2863 -0.52921,0.19414 -0.19893,-0.0902 -0.28626,-0.33041 -0.19409,-0.52939 0.0902,-0.19893 0.33041,-0.2863 0.52934,-0.19422 0.19893,0.0902 0.2863,0.3304 0.19389,0.52937 z"
     id="path3346"
     inkscape:connector-curvature="0"
     inkscape:transform-center-x="-39.510082"
     inkscape:transform-center-y="92.095434" />
</svg>
