<?xml version="1.0" encoding="UTF-8" standalone="no"?>
<!-- Created with Inkscape (http://www.inkscape.org/) -->

<svg
   xmlns:dc="http://purl.org/dc/elements/1.1/"
   xmlns:cc="http://creativecommons.org/ns#"
   xmlns:rdf="http://www.w3.org/1999/02/22-rdf-syntax-ns#"
   xmlns:svg="http://www.w3.org/2000/svg"
   xmlns="http://www.w3.org/2000/svg"
   xmlns:sodipodi="http://sodipodi.sourceforge.net/DTD/sodipodi-0.dtd"
   xmlns:inkscape="http://www.inkscape.org/namespaces/inkscape"
   id="svg4247"
   version="1.1"
   inkscape:version="0.91 r13725"
   width="215mm"
   height="279mm"
   viewBox="0 0 761.81105 988.5827"
   sodipodi:docname="insole.svg">
  <metadata
     id="metadata4253">
    <rdf:RDF>
      <cc:Work
         rdf:about="">
        <dc:format>image/svg+xml</dc:format>
        <dc:type
           rdf:resource="http://purl.org/dc/dcmitype/StillImage" />
        <dc:title></dc:title>
      </cc:Work>
    </rdf:RDF>
  </metadata>
  <defs
     id="defs4251" />
  <sodipodi:namedview
     pagecolor="#ffffff"
     bordercolor="#666666"
     borderopacity="1"
     objecttolerance="10"
     gridtolerance="10"
     guidetolerance="10"
     inkscape:pageopacity="0"
     inkscape:pageshadow="2"
     inkscape:window-width="1918"
     inkscape:window-height="1078"
     id="namedview4249"
     showgrid="false"
     units="mm"
     inkscape:zoom="0.44255319"
     inkscape:cx="-220.0138"
     inkscape:cy="928.22106"
     inkscape:window-x="0"
     inkscape:window-y="0"
     inkscape:window-maximized="0"
     inkscape:current-layer="svg4247" />
  <path
     style="fill:#000000"
     d="M 81.65238,204.25944 C 74.771233,159.84722 83.047456,107.37837 124.20976,81.612732 167.3082,45.361979 231.18785,48.45936 277.87396,76.053462 336.60234,103.66266 382.6961,151.43875 418.00539,205.009 c 46.76652,66.2084 70.45464,144.27797 97.21197,219.82422 19.67555,46.2457 39.6949,92.70697 70.50296,132.85473 38.45695,50.79449 72.02441,107.31702 86.38045,169.97369 8.50892,35.39728 -5.29239,73.74036 -34.28983,95.7971 -34.48897,34.6672 -90.53265,29.88808 -129.10458,5.04534 C 450.65638,790.02734 426.30949,721.25724 395.1608,662.23148 365.37623,603.81265 335.13238,543.7713 285.39881,499.385 224.12043,437.08078 150.60859,383.03746 113.05551,301.58062 96.582659,271.24542 87.077164,238.21729 81.65238,204.25944 Z m 9.148891,39.81215 c 21.508059,72.78089 67.869369,136.04094 123.938229,186.32663 56.69094,54.38297 119.54925,106.28014 153.30797,179.06006 40.96174,67.61406 63.5915,148.04678 121.90005,203.95519 37.21757,33.48884 99.74767,49.735 141.3894,14.45614 30.08846,-21.7505 49.06942,-59.32389 40.43854,-96.60864 C 662.95962,685.06044 640.81005,641.92373 616.0178,602.28931 583.44343,555.19126 547.49052,509.47994 527.77278,454.96461 494.6955,383.18225 479.17353,303.76928 436.44806,236.3594 403.8698,180.61113 362.77881,127.43114 306.96281,93.298342 262.67105,64.543622 204.46566,41.117406 153.03232,65.416222 c -41.12039,16.912 -74.338177,56.775358 -72.122947,102.886108 -1.956,25.74874 3.693657,50.97025 9.891898,75.76926 z m 371.117739,42.80885 c 1.93531,0.84613 -1.43238,1.55233 0,0 z"
     id="path4797"
     inkscape:connector-curvature="0" />
</svg>
