<?xml version="1.0" encoding="UTF-8" standalone="no"?>
<!-- Created with Inkscape (http://www.inkscape.org/) -->

<svg
   xmlns:dc="http://purl.org/dc/elements/1.1/"
   xmlns:cc="http://creativecommons.org/ns#"
   xmlns:rdf="http://www.w3.org/1999/02/22-rdf-syntax-ns#"
   xmlns:svg="http://www.w3.org/2000/svg"
   xmlns="http://www.w3.org/2000/svg"
   xmlns:sodipodi="http://sodipodi.sourceforge.net/DTD/sodipodi-0.dtd"
   xmlns:inkscape="http://www.inkscape.org/namespaces/inkscape"
   id="svg4848"
   version="1.1"
   inkscape:version="0.91 r13725"
   width="188mm"
   height="300mm"
   viewBox="0 0 666.14167 1062.9922"
   sodipodi:docname="insole5.svg">
  <sodipodi:namedview
     pagecolor="#ffffff"
     bordercolor="#666666"
     borderopacity="1"
     objecttolerance="10"
     gridtolerance="10"
     guidetolerance="10"
     inkscape:pageopacity="0"
     inkscape:pageshadow="2"
     inkscape:window-width="1918"
     inkscape:window-height="1078"
     id="namedview4850"
     showgrid="true"
     inkscape:zoom="1"
     inkscape:cx="304.52638"
     inkscape:cy="779.35064"
     inkscape:window-x="0"
     inkscape:window-y="0"
     inkscape:window-maximized="0"
     inkscape:current-layer="layer4"
     showguides="true"
     inkscape:guide-bbox="true"
     inkscape:document-units="cm"
     units="mm"
     fit-margin-top="45"
     fit-margin-left="5"
     fit-margin-right="5"
     fit-margin-bottom="5"
     borderlayer="true"
     inkscape:snap-nodes="true"
     inkscape:snap-global="true"
     inkscape:object-paths="true"
     inkscape:snap-intersection-paths="false">
    <inkscape:grid
       id="grid6455"
       type="xygrid"
       spacingx="3.5433071"
       spacingy="3.5433071"
       visible="true"
       dotted="false"
       enabled="true"
       originx="-138.41479"
       originy="18.183458" />
    <sodipodi:guide
       position="435.60094,765.82121"
       orientation="0,1"
       id="guide4212" />
    <sodipodi:guide
       position="393.08126,567.39604"
       orientation="0,1"
       id="guide5053" />
    <sodipodi:guide
       position="676.54581,230.78188"
       orientation="0,1"
       id="guide5055" />
    <sodipodi:guide
       position="495.83718,680.78186"
       orientation="1,0"
       id="guide3557" />
    <sodipodi:guide
       position="336.38838,715.06182"
       orientation="1,0"
       id="guide4347" />
  </sodipodi:namedview>
  <metadata
     id="metadata4854">
    <rdf:RDF>
      <cc:Work
         rdf:about="">
        <dc:format>image/svg+xml</dc:format>
        <dc:type
           rdf:resource="http://purl.org/dc/dcmitype/StillImage" />
        <dc:title />
      </cc:Work>
    </rdf:RDF>
  </metadata>
  <defs
     id="defs4852" />
  <flowRoot
     style="font-style:normal;font-weight:normal;font-size:40px;line-height:125%;font-family:sans-serif;letter-spacing:0px;word-spacing:0px;fill:#000000;fill-opacity:1;stroke:none;stroke-width:1px;stroke-linecap:butt;stroke-linejoin:miter;stroke-opacity:1"
     id="flowRoot5463"
     xml:space="preserve"
     transform="translate(-138.41473,128.80847)"><flowRegion
       id="flowRegion5465"><rect
         y="275.03717"
         x="424.30991"
         height="170.92342"
         width="163.42679"
         id="rect5467" /></flowRegion><flowPara
       id="flowPara5469" /></flowRoot>  <path
     cx="492.45602"
     cy="126.69213"
     rx="83.224541"
     ry="75.803238"
     id="path5547"
     style="opacity:1;fill:none;fill-opacity:1;stroke:#000000;stroke-width:1;stroke-miterlimit:4;stroke-dasharray:none;stroke-opacity:1"
     d=""
     inkscape:connector-curvature="0" />
  <a
     transform="translate(31.373731,273.98512)"
     id="a5544" />
  <g
     inkscape:groupmode="layer"
     id="layer4"
     inkscape:label="bottom insulator"
     style="display:none"
     transform="translate(-138.41473,128.80847)">
    <path
       style="display:inline;fill:none;fill-opacity:1;stroke:#000000;stroke-width:1;stroke-miterlimit:4;stroke-dasharray:none;stroke-opacity:1"
       d="m 194.39648,141.61914 c -49.6172,-0.4511 -94.842017,33.28882 -117.783199,76.4707 -35.666335,54.17359 -50.041199,118.94904 -52.199219,183.03907 -3.552129,52.99358 4.099994,105.12236 14.445313,156.82421 5.495259,27.46319 11.750855,54.80639 17.490234,82.09376 7.20681,49.44258 14.477784,99.21003 9.052735,149.24414 -6.13221,63.22294 -5.550065,128.83623 14.976562,189.58203 10.754789,32.42165 40.722094,59.25525 76.140624,63.05465 41.28132,11.1931 83.26448,-11.9389 105.59375,-46.24801 11.79123,-17.96554 18.81609,-37.2101 22.74805,-57.16992 l 103.29101,0 c 3.93197,19.95977 10.95489,39.20442 22.7461,57.16992 22.32926,34.30911 64.31439,57.44111 105.5957,46.24801 35.41854,-3.7994 65.38388,-30.633 76.13867,-63.05465 20.52663,-60.7458 21.10877,-126.35909 14.97657,-189.58203 -5.42505,-50.03411 1.84787,-99.80156 9.05468,-149.24414 5.73938,-27.28737 11.99498,-54.63057 17.49024,-82.09376 10.34532,-51.70185 17.99744,-103.83063 14.44531,-156.82421 -2.15802,-64.09003 -16.53288,-128.86548 -52.19922,-183.03907 -25.31441,-47.64897 -77.76335,-83.80054 -133.30469,-75.20507 -43.31651,0.46505 -75.57848,32.75862 -94.2207,69.24218 -2.23604,4.376 -4.27553,8.81288 -6.11523,13.26172 -12.9571,31.55258 -21.93123,64.42118 -23.70508,98.60742 -10.48206,89.02505 24.0128,173.47243 43.74609,258.54102 5.39813,18.00372 8.85185,36.25698 10.91797,54.6543 l -114.42383,0 c 2.06612,-18.39732 5.51789,-36.65058 10.91602,-54.6543 19.73329,-85.06859 54.22815,-169.51597 43.74609,-258.54102 -1.77385,-34.18624 -10.74603,-67.05484 -23.70312,-98.60742 -1.8397,-4.44884 -3.88115,-8.88572 -6.11719,-13.26172 -18.64222,-36.48356 -50.90419,-68.77713 -94.2207,-69.24218 -5.207,-0.80583 -10.38672,-1.21896 -15.51954,-1.26563 z m 83.25977,514.2793 117.69922,0 c 1.11178,17.36606 1.15979,34.82682 0.57422,52.29687 l -118.84766,0 c -0.58557,-17.47003 -0.53756,-34.93083 0.57422,-52.29687 z m 0.23437,70.01172 117.23243,0 c -1.0793,19.6936 -2.74243,39.36092 -4.38672,58.875 -0.58351,9.80618 -1.42114,19.78292 -2.30664,29.8457 l -103.84766,0 c -0.8855,-10.06274 -1.72118,-20.03956 -2.30469,-29.8457 -1.64429,-19.51408 -3.30742,-39.1814 -4.38672,-58.875 z m 8.24805,106.44531 100.73438,0 c -2.56671,29.53085 -4.62662,59.53828 -1.41602,88.4375 l -97.90234,0 c 3.2106,-28.89922 1.15069,-58.90665 -1.41602,-88.4375 z"
       transform="translate(138.41467,-128.80847)"
       id="path4858"
       inkscape:connector-curvature="0" />
  </g>
  <g
     transform="translate(-138.41473,128.80847)"
     style="display:none"
     inkscape:label="bottom insulator copy"
     id="g4175"
     inkscape:groupmode="layer">
    <path
       style="display:inline;fill:none;fill-opacity:1;stroke:#000000;stroke-width:1;stroke-miterlimit:4;stroke-dasharray:none;stroke-opacity:1"
       d="m 615.30078,18.871094 c -24.29005,0.176758 -50.20245,5.639775 -68.46484,22.773437 -31.05016,26.378622 -46.00352,66.201799 -55.80469,104.621089 -15.03042,61.62183 -10.78329,126.56072 4.9646,187.59179 13.73589,59.01947 35.00884,116.40798 42.34595,176.78126 6.94073,68.15309 -3.33003,136.4304 -8.06289,204.52089 -3.63538,44.50914 -4.59686,91.73161 15.08437,133.00255 14.64441,30.06354 42.37714,56.06411 76.42578,60.78516 23.93704,2.71171 49.16037,-2.54371 69.44141,-15.69532 22.12002,-15.09451 35.53507,-40.23887 40.42383,-66.14257 16.4646,-62.14914 12.253,-127.20762 6.7769,-190.53239 -2.05398,-69.65209 12.90757,-138.16736 27.7666,-205.8734 12.24188,-59.87564 19.84373,-121.4033 13.48251,-182.49034 C 774.45218,182.96838 752.87447,117.86725 711.97461,66.1875 688.27395,37.981814 652.86538,17.816047 615.30078,18.871094 Z"
       id="path4177"
       inkscape:connector-curvature="0" />
  </g>
  <g
     inkscape:groupmode="layer"
     id="layer3"
     inkscape:label="velostat"
     style="display:none"
     transform="translate(-138.41473,128.80847)">
    <path
       style="display:inline;fill:none;fill-opacity:1;stroke:#000000;stroke-width:1;stroke-miterlimit:4;stroke-dasharray:none;stroke-opacity:1"
       d="m 532.01953,695.61328 c -4.4725,49.66475 -9.03331,101.92187 11.54688,148.61524 14.9707,34.16711 47.06611,63.53651 85.70898,65.55273 18.01974,0.24469 36.27525,-3.26465 52.62109,-10.9668 24.85826,-12.70396 42.28001,-37.83146 47.94922,-65.10547 13.27884,-46.71901 15.2174,-95.79086 12.45899,-144.02539 -69.92383,0 -139.84766,0 -209.77149,0 -0.17122,1.97657 -0.34244,3.95313 -0.51367,5.92969 z"
       id="path3541"
       inkscape:connector-curvature="0" />
    <path
       style="opacity:1;fill:none;fill-opacity:1;stroke:#000000;stroke-width:1;stroke-miterlimit:4;stroke-dasharray:none;stroke-opacity:1"
       d="m 615.60352,18.947266 c -22.00741,0.362354 -45.16767,3.836422 -62.74307,17.975079 -33.40064,24.364658 -49.78987,64.840915 -60.33733,103.449935 -0.13022,3.7135 -5.65626,11.79667 1.56672,9.81717 88.1875,0 176.375,0 264.5625,0 C 748.15456,121.73625 733.13752,95.033585 715.45788,70.502087 691.67259,40.115495 655.10159,17.752357 615.60352,18.947266 Z"
       id="rect3544"
       inkscape:connector-curvature="0" />
    <path
       style="opacity:1;fill:none;fill-opacity:1;stroke:#000000;stroke-width:1;stroke-miterlimit:4;stroke-dasharray:none;stroke-opacity:1"
       d="m 485.30469,175.99219 c -6.22545,43.88358 -4.43677,88.50758 4.95637,131.76813 3.70052,18.46527 8.28882,36.82324 13.14714,55.02874 36.37565,0 72.75131,0 109.12696,0 0,-62.29427 0,-124.58854 0,-186.88281 -42.38561,0.0572 -84.96715,-0.11451 -127.23047,0.0859 z"
       id="rect3559"
       inkscape:connector-curvature="0" />
    <path
       style="opacity:1;fill:none;fill-opacity:1;stroke:#000000;stroke-width:1;stroke-miterlimit:4;stroke-dasharray:none;stroke-opacity:1"
       d="m 645.33789,362.78906 c 44.08594,0 88.17188,0 132.25781,0 6.88341,-53.2598 5.47516,-107.70471 -4.41758,-160.49019 -1.7618,-8.83854 -3.85214,-17.67517 -6.27773,-26.39262 -40.52083,0 -81.04167,0 -121.5625,0 0,62.29427 0,124.58854 0,186.88281 z"
       id="rect3567"
       inkscape:connector-curvature="0" />
  </g>
  <g
     transform="translate(-138.41473,128.80847)"
     style="display:inline"
     inkscape:label="electrode"
     id="g4189"
     inkscape:groupmode="layer">
    <path
       style="display:inline;fill:none;fill-opacity:1;stroke:#000000;stroke-width:1;stroke-miterlimit:4;stroke-dasharray:none;stroke-opacity:1"
       d="m 337.06361,24.90247 c -1.58675,-0.025 -3.16915,-0.0219 -4.74414,0.006 -4.36796,-0.0681 -8.70984,0.18548 -13.00781,0.72656 -0.21397,0.029 -0.42884,0.0537 -0.64258,0.084 -0.2536,0.0337 -0.50649,0.0737 -0.75976,0.10938 -14.5194,2.16707 -28.46916,7.41036 -41.11133,14.89062 -0.53201,0.31674 -1.0607,0.63848 -1.58789,0.96289 -0.14407,0.0887 -0.2899,0.17448 -0.43359,0.26368 -0.007,0.005 -0.0145,0.01 -0.0215,0.0137 -6.60482,4.10242 -12.8204,8.80331 -18.5332,13.93164 -0.6106,0.58399 -1.21881,1.17154 -1.82031,1.76367 -0.15681,0.1539 -0.31261,0.30843 -0.46876,0.46289 -2.34325,2.32397 -4.61972,4.70695 -6.82812,7.14844 -0.005,0.006 -0.0106,0.0116 -0.0156,0.0176 -0.0281,0.0311 -0.0559,0.0625 -0.084,0.0937 -1.071,1.18593 -2.1199,2.38977 -3.16016,3.60156 -0.83554,0.9787 -1.67135,1.95807 -2.48632,2.95312 -0.0292,0.0357 -0.0606,0.0698 -0.0898,0.10547 -0.0136,0.0165 -0.0255,0.0343 -0.0391,0.0508 -13.58992,16.62857 -24.35154,35.48106 -33.53125,54.91993 l -0.13281,0 c -3.10861,6.70408 -6.00549,13.4935 -8.70313,20.32031 -6.52495,17.05225 -11.6186,34.48913 -15.45117,52.17969 l 0.16601,0 c -7.63994,36.28665 -10.437,73.43001 -9.35351,110.49804 0.0508,1.56607 0.0999,3.13161 0.16406,4.69727 0.0156,0.41023 0.0342,0.82027 0.0508,1.23047 1.11356,25.7704 4.00728,51.46811 8.19141,76.70703 14.05413,76.44203 35.28885,152.4549 34.98437,230.76172 -1.99376,40.025 -5.98425,80.1882 -4.84765,120.23047 0.44024,12.78958 1.38424,25.55291 2.9707,38.24023 0.73055,4.87257 1.46317,9.76535 2.24609,14.66992 2.41052,12.88439 4.6582,26.04212 8.33985,38.66602 1.8378,6.07625 3.99104,12.05635 6.57422,17.88672 0.0746,0.17824 0.15652,0.35183 0.23242,0.52929 2.46367,5.2636 5.37476,10.33606 8.88086,15.14063 1.38806,1.99382 2.88048,3.8878 4.4453,5.707 7.21511,8.0815 16.04459,14.67 25.80274,19.4981 15.7974,7.6127 34.02041,10.6768 51.30859,9.4141 8.35214,-0.9243 16.55468,-3.1026 24.29297,-6.3926 11.31637,-4.9832 21.49652,-12.3488 30.18359,-21.2637 0.29972,-0.3078 0.60108,-0.6148 0.89649,-0.9258 0.41669,-0.4379 0.82678,-0.8832 1.23633,-1.3281 0.42058,-0.4582 0.84036,-0.9164 1.25195,-1.3809 0.22672,-0.2548 0.44942,-0.5126 0.67383,-0.7695 0.62536,-0.7195 1.24711,-1.442 1.85156,-2.17579 9.3187,-11.31277 16.16502,-24.29915 21.0547,-38.08008 0.32261,-0.92405 0.64602,-1.84816 0.95117,-2.77539 0.0345,-0.10486 0.0712,-0.20955 0.10547,-0.31445 5.45765,-16.69697 8.11711,-33.89961 9.10351,-51.28906 0.48618,-18.00576 -0.025,-35.98646 -1.07226,-53.95703 -0.66071,-8.91812 -1.46088,-17.79899 -2.25196,-26.60157 l -0.0391,-0.44726 -152.9082,0 0,-98.58203 157.4082,0 c -0.64727,-11.8106 -1.09252,-23.63057 -1.16798,-35.4336 l -156.24022,0 0,-204.8789 39.60546,0 0,-157.28125 0,-55.3086 c 14.93301,-0.003 29.86042,0.002 44.80273,-0.008 l 0,37.7168 0,19.09961 0,155.78125 81.50586,0 c 5.4536,-1.09222 14.33344,2.26194 17.48242,-1.82227 5.85701,-20.96509 10.81425,-42.33622 14.33008,-63.90625 6.20601,-38.86168 7.80631,-78.33618 1.5625,-117.36719 -2.23887,-12.37495 -4.88024,-24.89349 -8.23633,-37.2207 l -0.11914,0 C 445.5822,120.97215 440.08541,105.1891 432.66904,90.43566 426.11145,77.57581 418.08658,65.52517 408.09873,54.79113 c -0.18446,-0.22054 -0.37588,-0.43251 -0.5625,-0.65039 -1.59131,-1.64883 -3.22633,-3.25903 -4.91797,-4.81836 -2.61399,-2.70796 -5.41715,-5.15161 -8.375,-7.35156 -0.23369,-0.16778 -0.46381,-0.34073 -0.69922,-0.50586 -0.0126,-0.009 -0.0245,-0.0183 -0.0371,-0.0273 -8.52696,-5.97384 -18.16859,-10.20838 -28.30273,-12.9082 -9.17398,-2.36518 -18.73619,-3.47745 -28.14063,-3.62695 z"
       id="path4317"
       inkscape:connector-curvature="0" />
    <path
       style="display:inline;fill:none;fill-opacity:1;stroke:#000000;stroke-width:1;stroke-miterlimit:4;stroke-dasharray:none;stroke-opacity:1"
       d="m 474.36328,153.71094 c -23.80123,0.37837 -48.62737,6.88405 -65.55469,24.41992 -26.77959,24.68506 -40.76931,61.03368 -49.25976,94.91992 40.6224,-0.10859 81.37964,-0.0701 122.11523,-0.0449 l 0,311.17187 -98.39258,0 c 3.43442,11.71768 6.06984,23.53659 8.0293,35.4336 l 90.36328,0 17.7168,0 0,-35.4336 0,-311.16992 c 37.40214,0.0165 74.77518,0.01 111.97656,-0.16015 -13.5912,-31.91494 -30.415,-63.53642 -55.80078,-87.83789 -20.6731,-18.6887 -48.03782,-31.73601 -76.44922,-31.29297 -1.57499,-0.0278 -3.15739,-0.031 -4.74414,-0.006 z"
       transform="translate(138.41467,-128.80847)"
       id="path4320"
       inkscape:connector-curvature="0" />
    <path
       style="display:inline;fill:none;fill-opacity:1;stroke:#000000;stroke-width:1;stroke-miterlimit:4;stroke-dasharray:none;stroke-opacity:1"
       d="m 378.65234,310.71094 c -8.84246,0.0174 -17.68491,0.0393 -26.52734,0.0723 -8.03888,57.98016 1.34501,116.92729 17.00781,172.99219 3.14899,4.08421 12.02884,0.73005 17.48242,1.82227 l 59.61524,0 0,45.43164 -76.70117,0 c 3.23159,11.81378 6.41363,23.62042 9.38086,35.43164 l 85.03711,0 4.17382,0 0,-80.86328 0,-18.78125 0,-156.09961 c -29.82291,0.0188 -59.64583,-0.0281 -89.46875,-0.006 z"
       transform="translate(138.41467,-128.80847)"
       id="path4323"
       inkscape:connector-curvature="0" />
    <path
       style="display:inline;fill:none;fill-opacity:1;stroke:#000000;stroke-width:1;stroke-miterlimit:4;stroke-dasharray:none;stroke-opacity:1"
       d="m 622.7168,310.41211 c -0.96623,0.01 -1.9321,0.14777 -2.89649,0.19141 -24.0211,0.54911 -48.06265,-0.25296 -72.0957,0.11132 l -34.80078,0 0,161.60157 0,13.28125 0,151.73046 -119.18945,0 c 1.31641,11.76159 2.06218,23.58201 2.3789,35.4336 l 120.98438,0 17.71679,0 0,-187.16406 99.03125,0 c 6.66186,-58.4425 4.52446,-118.06632 -10.16211,-175.14454 -0.32189,-0.0334 -0.64471,-0.0443 -0.96679,-0.041 z"
       transform="translate(138.41467,-128.80847)"
       id="path4326"
       inkscape:connector-curvature="0" />
    <path
       style="display:inline;fill:none;fill-opacity:1;stroke:#000000;stroke-width:1;stroke-miterlimit:4;stroke-dasharray:none;stroke-opacity:1"
       d="m 394.01367,743.62695 c -0.83341,11.84764 -1.81137,23.66034 -2.80273,35.4336 l 37.30273,0 0,17.71679 0,27.71485 -28.89258,0 -0.0391,0.44726 c -4.19326,46.65955 -8.64564,95.53904 8.80664,140.31055 12.32585,32.36282 40.14316,60.9023 75.41016,66.5762 31.43071,3.5656 66.92513,-7.4026 85.61719,-34.25198 16.22848,-22.23871 19.74927,-50.18797 24.82812,-76.50391 4.90431,-31.8881 5.54511,-64.33671 3.94727,-96.57812 l -134.24414,0 0,-27.71485 0,-17.71679 0,-17.7168 0,-17.7168 -69.9336,0 z"
       transform="translate(138.41467,-128.80847)"
       id="path4329"
       inkscape:connector-curvature="0" />
  </g>
  <g
     inkscape:groupmode="layer"
     id="g4232"
     inkscape:label="electrode copy"
     style="display:none"
     transform="translate(-138.41473,128.80847)" />
</svg>
